<?xml version="1.0" encoding="UTF-8"?>
<svg id="Calque_1" data-name="Calque 1" xmlns="http://www.w3.org/2000/svg" viewBox="0 0 595.28 841.89">
  <path d="M516.77,381.88v-8.44c-.71-.3-1.32-.54-1.89-.84-6.18-3.49-12.33-7.03-18.53-10.47-.21-.12-.4-.24-.58-.36-.16-.1-.3-.2-.43-.32-.03-.02-.06-.06-.09-.09-.13-.11-.24-.22-.35-.34-.02-.03-.05-.06-.08-.09-.1-.12-.19-.25-.27-.38-.01,0-.02-.03-.03-.05-.07-.11-.14-.23-.18-.36-.02-.02-.03-.04-.03-.06-.03-.06-.05-.12-.07-.18,0,0-.02,0,0-.02-.04-.11-.09-.21-.11-.32h0c-.03-.14-.06-.28-.08-.42-.07-.33-.09-.66-.09-1.05.02-3.28.03-6.55.05-9.82.03-10.83,0-21.68-.05-32.52,0-.6.05-1.13.2-1.6.03-.08.06-.17.09-.26.03-.1.08-.2.13-.3.04-.08.09-.16.14-.24.04-.08.11-.17.16-.24.06-.07.11-.14.18-.21.07-.09.16-.17.24-.26.07-.06.14-.13.22-.19.08-.07.16-.13.24-.19.08-.06.17-.11.27-.18.08-.05.18-.12.28-.17,4.3-2.51,8.57-5.06,12.95-7.67,1.24-.74,2.5-1.49,3.76-2.25h0c-1.2-2.15-2.66-4.15-4.34-5.97-3.92,2.31-7.74,4.54-11.5,6.71-.98.58-1.98,1.15-2.97,1.71-.98.57-1.97,1.14-2.96,1.7-.53.3-1.34.45-2.04.39h-.05c-.1,0-.2-.02-.28-.05-.21-.04-.39-.1-.55-.19-25.62-14.55-51.18-29.18-76.75-43.82-.06-.03-.05-.17-.14-.57,3.41-2.05,6.81-4.12,10.26-6.19,1.58-.94,3.15-1.88,4.73-2.82,1.68-.99,3.36-1.98,5.05-2.95l-7.48-4.3c-7.49,4.24-14.9,8.46-22.37,12.69-2.52,1.43-5.05,2.86-7.6,4.3h0c-.14-.51-.25-.98-.31-1.42-.08-.44-.11-.85-.11-1.24,0-.22,0-.42.03-.61.02-.19.06-.38.1-.56.04-.19.1-.39.17-.57.06-.13.11-.26.17-.38.19-.38.45-.71.76-1.05l.2-.19c.05-.06.1-.1.16-.14.04-.06.11-.1.16-.14.12-.1.24-.2.37-.28.13-.09.26-.18.4-.26.14-.09.29-.18.44-.26.1-.07.19-.12.3-.17.76-.4,1.52-.79,2.28-1.2,1.51-.81,3.02-1.66,4.52-2.51,1.49-.84,2.97-1.72,4.45-2.6,1.48-.89,2.95-1.79,4.41-2.71.72-.46,1.44-.91,2.17-1.38.21-.14.42-.27.64-.39.42-.25.82-.47,1.23-.65.19-.08.39-.17.57-.23.19-.09.38-.15.57-.21.11-.03.21-.06.3-.09.15-.05.32-.08.48-.1.25-.05.5-.08.72-.1.12,0,.22,0,.33,0,.06,0,.13,0,.2,0l-10.22-5.92s-.04-.04-.06-.05l-.75-.43s-.06-.04-.1-.05c-.05-.03-.09-.06-.15-.09l-43.74-25.22s.03.07.05.1c.07.11.15.25.26.41-2.66,1.54-5.32,3.07-7.98,4.6-5.33,3.07-10.65,6.15-15.99,9.22-2.66,1.54-5.34,3.08-8.01,4.62-9.16-5.55-18.28-11.09-27.79-16.86,6.13-3.68,11.93-7.16,17.71-10.62,3.95-2.36,7.86-4.77,11.88-7.02.52-.3,1.31-.52,1.99-.52l-19.79-11.41c3.67,2.14,7.36,4.29,11.03,6.44.15.09.21.33.35.57-4.5,2.68-9,5.36-13.52,8.06-4.53,2.7-9.07,5.41-13.67,8.15,0,.02,0,.02,0,.02-2.2-1.31-4.44-2.63-6.66-3.96-3.35-1.98-6.71-3.97-10.13-5.97-1.84-1.1-3.69-2.19-5.56-3.3-1.57-.92-3.15-1.85-4.74-2.8,3.42-2,6.77-3.96,10.09-5.9,1.72-1,3.42-2,5.11-2.99-1.14.49-2.24,1.04-3.33,1.66l-31.43,18.11c3.68-2.09,7.37-4.18,11.07-6.24.67-.37,2.08.06,2.88.55,9.62,5.7,19.17,11.48,29.01,17.42-8.86,5.28-17.58,10.51-26.33,15.65-.55.34-1.61.38-2.14.06-9.9-5.81-19.75-11.69-29.6-17.57-.23-.13-.34-.44-.61-.8l-56.27,32.44c1.7-.71,3.4-.46,5.46.85,6.23,3.96,12.77,7.4,19.18,11.07,2.28,1.32,2.27,1.34,1.88,6.81-9.79-5.61-19.43-11.14-29.32-16.82.4-.37.78-.68,1.15-.96l-9.23,5.32c.49.18.99.42,1.53.75,6.29,3.86,12.71,7.49,19.36,11.37,0,0,0,0,0,0-1.21.67-2.42,1.35-3.61,2.02-1.3.72-2.61,1.46-3.9,2.18-1.07.6-2.13,1.19-3.18,1.78-1.17.65-2.34,1.32-3.51,1.97-21.11,11.94-42.23,23.86-63.29,35.86-1.02.58-1.85.84-2.73.68-.17-.02-.33-.06-.5-.11-.17-.06-.34-.13-.52-.22-.19-.09-.36-.18-.55-.3-.8-.5-1.61-1-2.41-1.49-.81-.5-1.62-.98-2.43-1.47-.81-.5-1.63-.99-2.46-1.48-1.12-.67-2.24-1.35-3.4-2.03-1.05-.61-2.1-1.25-3.16-1.87-.86-.51-1.73-1.02-2.6-1.54-1.7,1.83-3.18,3.86-4.39,6.03,2.27,1.36,4.47,2.67,6.66,3.98,1.26.74,2.51,1.49,3.77,2.21.42.25.84.5,1.26.75.42.25.83.5,1.25.74.72.45,1.45.88,2.16,1.35.52.33,1.02.65,1.52,1,.94.63,1.85,2.11,1.86,3.21.03,3.74.06,7.47.07,11.2,0,3.34.02,6.69.02,10.04,0,3.9,0,7.8,0,11.71,0,3.52-.02,7.03-.03,10.55,0,.11-.02.23-.03.35-.07.83-.41,1.84-.95,2.17-5.33,3.11-10.73,6.16-16.29,9.28-1.72.95-3.45,1.92-5.19,2.91v8.21c25.58,14.86,50.71,29.46,76.29,44.34-3.19,1.91-5.96,3.6-8.77,5.27-3.69,2.19-7.45,4.27-11.06,6.58-.69.43-1.26.62-1.84.62-.32,0-.62-.05-.92-.16-.31-.11-.65-.28-1-.48-3.31-1.96-6.63-3.93-9.95-5.88-13.87-8.18-27.75-16.34-41.62-24.53-.2-.11-.39-.26-.58-.42-.1-.09-.2-.19-.3-.28-.09-.1-.18-.2-.26-.31v8.96c.25.15.5.3.74.46,2.71,1.65,5.21,3.18,7.76,4.66,2.03,1.18,4.07,2.32,6.12,3.47,1.02.58,2.04,1.16,3.06,1.74.51.29,1,.59,1.52.89.51.3,1,.59,1.5.91.21.13.42.31.61.51.12.13.23.27.32.41,0,.02.02.02.02.03.07.08.12.17.18.27.07.12.15.24.2.37.07.14.12.27.16.4.09.26.14.52.14.75.07,24.75.08,49.53.06,74.3,0,7.83-.02,15.66-.03,23.5,0,.05,0,.11-.03.16,0,.07,0,.13-.02.21,0,0,0,.02,0,.03,0,.05-.02.12-.04.18-.02.09-.04.17-.07.26-.03.1-.06.18-.09.27-.07.16-.14.31-.22.45-.06.11-.13.22-.19.31-.05.06-.09.12-.13.16-.13.15-.26.28-.41.37-2.64,1.57-5.27,3.11-7.94,4.66-1.79,1.04-3.57,2.08-5.38,3.12-1.58.9-3.17,1.82-4.77,2.75-.25.15-.51.29-.76.44.95,2.3,2.17,4.49,3.64,6.5,2.42-1.45,4.82-2.88,7.19-4.29,1.97-1.17,3.9-2.33,5.85-3.46,2.91-1.72,5.82-3.41,8.75-5.08.12-.06.26-.11.41-.14.34-.07.74-.05,1.19.02.11.02.23.05.36.08.24.06.49.14.72.23.11.04.22.08.33.14.14.06.27.14.39.2.07.03.14.08.2.12,1.03.68,2.07,1.37,3.08,2.06,1.03.7,2.06,1.39,3.08,2.08,2.04,1.39,4.08,2.79,6.13,4.17,1.36.92,2.72,1.85,4.08,2.79,2.72,1.84,5.45,3.7,8.19,5.53,2.75,1.83,5.5,3.63,8.28,5.4,1.62,1.03,3.24,2.06,4.87,3.07,1.63,1.02,3.26,2.03,4.9,3.04,2.46,1.51,4.92,3.01,7.38,4.5,2.47,1.5,4.93,2.99,7.4,4.48,2.64,1.6,5.29,3.18,7.92,4.78,2.29,1.39,4.59,2.78,6.88,4.16.21.13.41.25.63.38.22.13.43.26.66.4.72.44,1.53.92,2.51,1.52-.88.52-1.76,1.02-2.63,1.53-5.69,3.26-11.18,6.44-16.72,9.48-.44.23-.86.47-1.29.7-.06.03-.12.06-.19.08-.13.05-.28.08-.45.1-.86.08-2.06-.28-2.82-.71-17.04-9.83-34.05-19.71-51.03-29.63-7.36-4.29-14.69-8.66-22-13.02,1.62,1.47,3.41,2.79,5.35,3.9l115.39,66.52.26.15,7.39,4.25c6.98-4.2,13.52-8.14,20.05-12.07,3.43-2.05,6.92-3.99,10.29-6.13,1.72-1.1,3.12-1.34,4.82.06.17.14.34.28.52.41.35.27.71.52,1.11.75.58.37,1.2.72,1.87,1.11.43.26.87.52,1.35.81-1.39.86-2.72,1.68-4.03,2.48-1.76,1.06-3.46,2.09-5.15,3.12-.42.25-.84.51-1.26.76-1.68,1-3.38,2.01-5.07,3.01-5.07,3.02-10.17,6.04-15.2,9.15-.63.4-1.21.69-1.78.85l7.56,4.35h0s.05-.03.08-.06c.54-.45.9-.77,1.32-1.02,9.2-5.61,18.46-11.15,27.62-16.83.11-.07.21-.13.3-.19.21-.11.4-.2.59-.29.28-.13.55-.22.81-.26.8-.16,1.59.03,2.57.63,7.52,4.56,15.13,8.93,22.71,13.4.53.3,1.03.62,1.62,1.01.24.15.49.32.75.5.13.07.27.17.42.27-.35.21-.68.41-1.01.6-2.34,1.4-4.5,2.68-6.64,3.96-7.48,4.44-14.92,8.89-22.43,13.28-.14.07-.3.16-.48.25h-.01c-.17.07-.34.15-.54.21-.18.07-.38.12-.56.17h-.02s7.61,4.38,7.61,4.38c3.72-2.22,7.41-4.43,11.04-6.59,1.21-.72,2.41-1.45,3.62-2.16,1.71-1.03,3.42-2.03,5.11-3.04,2.18-1.29,4.37-2.59,6.56-3.88h0c.07-.04.17-.07.27-.1.33-.07.74-.03,1.13.08.26.08.51.18.7.29,2.16,1.29,4.33,2.58,6.51,3.87,1.58.94,3.18,1.89,4.78,2.86,1.6.95,3.21,1.91,4.81,2.87,3.22,1.91,6.44,3.87,9.71,5.82l7.39-4.25c-.14-.04-.28-.07-.44-.12-.07-.02-.14-.05-.21-.08-.03,0-.07-.02-.1-.04-.14-.06-.28-.12-.42-.2-.18-.08-.35-.18-.52-.29-9.09-5.62-18.26-11.05-27.42-16.55-.66-.4-1.29-.81-2.34-1.48,8.79-5.23,17.08-10.21,25.44-15.1.75-.44,2.17-.62,2.85-.23,9.85,5.87,19.63,11.88,29.43,17.85.27.16.52.35.83.59l7.36-4.23v-.02c-1.02-.6-2.06-1.23-3.07-1.83-9.67-5.82-19.32-11.62-29.27-17.59,2.06-1.36,3.62-2.46,5.18-3.41.22-.14.45-.27.68-.4.08-.05.18-.09.29-.14.31-.12.7-.2,1.07-.2.08,0,.17,0,.26.02.09,0,.18.02.26.05.07.03.14.06.2.09,2.05,1.2,4.1,2.41,6.15,3.62,1.22.71,2.44,1.44,3.66,2.15,1.98,1.18,3.94,2.33,5.92,3.51,5.36,3.17,10.78,6.39,16.35,9.71h0l7.19-4.15c-11.04-6.64-21.55-12.95-32.44-19.49,0,0,0,0,0,0,2.8-1.68,5.57-3.35,8.34-5.01,2.08-1.25,4.15-2.5,6.22-3.74.69-.41,1.37-.82,2.07-1.23,2.41-1.46,4.81-2.9,7.23-4.35,3.12-1.86,6.23-3.74,9.37-5.62,0,13.09,0,25.66,0,39h0l46.51-26.81c-.17.05-.35.08-.53.09-.14.02-.28.03-.41.03-.35,0-.69-.05-.92-.19-6.86-3.87-13.62-7.89-20.67-12.02,7.26-4.29,14.35-8.17,21.11-12.54h0c9.08-5.9,18.13-11.83,27.17-17.79,9.03-5.96,18.05-11.96,27.06-17.94,1.76-1.17,2.93-1.25,4.74-.16,6.8,4.09,13.69,8.04,20.89,12.2,1.42-1.95,2.6-4.08,3.53-6.32-1.92-1.13-3.81-2.25-5.69-3.36-3.6-2.13-7.13-4.21-10.62-6.34-.88-.53-1.75-1.06-2.62-1.6-.79-.5-1.41-1.91-1.41-2.91-.04-20.14-.02-40.3,0-60.45,0-4.64.02-9.28.03-13.92,0-7.33.03-14.63.05-21.95,0-.52.1-1.16.31-1.72.19-.57.48-1.07.85-1.3,1.76-1.07,3.53-2.13,5.31-3.18,1.78-1.06,3.56-2.11,5.36-3.15.9-.53,1.81-1.05,2.72-1.58,1.81-1.06,3.64-2.12,5.49-3.18.84-.49,1.7-.99,2.56-1.49v-9.17s-.05.07-.08.11c-.03.06-.08.13-.13.18-.12.17-.26.33-.41.49-.1.08-.18.16-.27.23-.09.08-.18.14-.27.2-8.62,5.13-17.26,10.24-25.9,15.35-8.64,5.1-17.29,10.19-25.95,15.26-.12.06-.23.12-.37.17-.1.04-.2.08-.31.1-.12.03-.23.06-.35.07-.17.04-.32.05-.48.06-.19.02-.4.02-.58,0-.22-.02-.42-.07-.61-.13-.08-.02-.17-.07-.24-.11-6.45-3.78-12.81-7.7-19.76-11.94,19.06-11.2,37.9-22.25,56.95-33.44,6.21-3.65,12.45-7.32,18.73-10.99ZM123.47,317.52c0-.74.5-1.81,1.1-2.18,6.58-3.94,13.23-7.77,20.04-11.75,3.37,6.3,6.67,12.53,9.99,18.75,1.6,2.98,2.9,6.17,4.84,8.91,2.17,3.09,2.01,5.58.11,8.81-4.53,7.72-8.58,15.7-12.84,23.57-.66,1.21-1.37,2.4-2.06,3.6-6.57-3.77-13.01-7.38-19.31-11.19-.89-.54-1.72-2.01-1.74-3.07-.15-11.82-.16-23.63-.13-35.45ZM161.3,417.39c-22.89-13.38-45.19-26.41-67.79-39.62.84-.6,1.34-1.02,1.9-1.35,5.22-2.94,10.57-5.67,15.62-8.88,3-1.91,5.29-1.9,8.35-.09,12.87,7.68,25.86,15.14,38.86,22.55,2.24,1.29,3.22,2.69,3.13,5.39-.22,7.14-.07,14.28-.07,22ZM161.22,435.12v15.58c-4.48-2.64-8.61-5.06-13.19-7.74,4.58-2.72,8.71-5.18,13.19-7.84ZM115.47,484.8v-12.19c0-3.98-.13-7.95.09-11.92.06-1.13.83-2.67,1.78-3.24,6.04-3.7,12.17-7.24,18.36-10.72.79-.44,2.22-.59,2.96-.19,7.49,4.17,14.88,8.5,22.7,13.01-15.31,8.43-30.32,16.68-45.88,25.25ZM161.1,505.89c-1.1,17.1-20.85,29.42-37.37,25.9-2.92-.61-3.89-1.64-3.8-4.56.2-6.73.07-13.48.07-20.65,1.22,0,2.47.09,3.71-.02,3.67-.33,7.53-.12,10.94-1.24,7.36-2.45,11.45-8.13,11.77-15.71.3-7.24,4.28-11.69,9.79-15.38,1.55-1.03,3.32-1.75,5.02-2.64,0,11.69.6,23.03-.14,34.29ZM393.29,273.04c0-.59.39-1.43.85-1.71,2.54-1.59,5.12-3.1,7.77-4.48.53-.27,1.56-.03,2.15.32,8.21,4.68,16.39,9.43,25.2,14.51-12.08,6.99-23.72,13.71-36.02,20.83,0-10.46,0-19.95.04-29.46ZM358.72,224.34c3.54-2.04,7.18-3.94,10.56-6.22,2.33-1.57,4.23-1.71,6.35.1.73.63,1.64,1.06,3.08,1.96-10.68,6.23-20.83,12.16-31.01,18.01-.61.35-1.72.3-2.36-.02-1.68-.84-3.24-1.95-5.14-3.13,6.36-3.68,12.44-7.19,18.54-10.71ZM385.74,224.86v37.28c-10.69-6.27-21.05-12.33-31.71-18.58,10.68-6.3,21.02-12.4,31.71-18.71ZM304.72,225.59v-3.44c3.92,2.34,7.34,4.36,10.73,6.4,22.86,13.74,45.72,27.47,68.55,41.26.82.49,1.95,1.44,1.96,2.2.14,8.21.09,16.44.09,25.19-3-1.71-5.58-3.12-8.12-4.62-23.33-13.71-46.65-27.47-70.03-41.11-2.34-1.37-3.32-2.85-3.23-5.61.22-6.74.06-13.5.05-20.27ZM335.99,276.74c-10.6,6.27-20.77,12.29-31.22,18.47v-37.01c10.56,6.27,20.62,12.24,31.22,18.54ZM230.05,216.55c.5-.24,1.4-.11,1.92.18,10.27,5.95,20.51,11.96,30.77,17.95.06.03.07.17.16.42-1.86,1.22-3.7,2.56-5.68,3.64-.61.34-1.78.22-2.4-.16-10.26-6-20.44-12.06-31.24-18.47,2.53-1.41,4.46-2.58,6.47-3.56ZM216.57,224.44c10.75,6.43,21.26,12.72,32.21,19.28-10.82,6.4-21.3,12.6-32.22,19.06,0-13.05,0-25.4,0-38.34ZM216.51,272.43c0-.6.62-1.45,1.19-1.78,26.26-15.95,52.57-31.84,78.85-47.75.16-.1.38-.1,1.03-.25v5.51c0,6.27-.08,12.53.05,18.78.05,2.04-.63,3.18-2.41,4.23-23.94,14.03-47.81,28.13-71.71,42.24-2.21,1.29-4.42,2.58-7.06,4.1,0-8.68-.02-16.88.06-25.08ZM297.39,258.44v36.8c-10.27-6.21-20.14-12.18-30.42-18.39,10.35-6.27,20.21-12.22,30.42-18.41ZM179.03,278.33c6.37-3.69,12.72-7.45,19.19-11.01.96-.54,2.58-.35,3.73,0,6.1,1.9,8.04,5.97,7.48,12.31-.65,7.27-.15,14.64-.15,22.6-12.11-7.06-23.62-13.75-35.65-20.76,2.19-1.29,3.78-2.22,5.39-3.15ZM163.84,337.18c-.46-.88-.62-2.35-.19-3.17,5.28-10.14,10.67-20.21,16.05-30.31.24-.43.5-.83.88-1.47,6.37,3.8,12.5,7.36,18.51,11.11.87.55,1.66,1.98,1.67,3.02.07,12.41.02,24.83-.11,37.24-.01.89-.64,2.15-1.38,2.58-6.36,3.72-12.83,7.3-19.43,10.99-.49-.71-.96-1.32-1.32-2-4.93-9.32-9.85-18.63-14.68-27.99ZM168.55,550.38v-46.2h32.15v12.2c0,4.47.1,8.94-.02,13.4-.02.91-.52,2.22-1.22,2.65-9.98,6.04-20.05,11.96-30.1,17.89-.15.09-.39.04-.81.06ZM204.99,592.91c-5.44,2.7-10.56,6.05-15.81,9.12-3.91,2.29-4.77,2.2-9.02-1.11,9.52-5.44,18.92-10.8,28.51-16.28,1.3,4.33-.15,6.49-3.68,8.27ZM207.1,576.48c-6.33,3.82-6.3,3.87-12.55.12-6.57-3.94-13.16-7.86-20.1-12,11.72-6.8,22.92-13.3,34.65-20.1.09,1.39.21,2.3.21,3.21,0,8.25-.07,16.5.04,24.74.03,1.95-.6,3.04-2.25,4.03ZM216.93,622.92c0-13.22-.2-25.64-.2-38.96,11,6.58,21.82,13.06,33.07,19.8-11.15,6.62-21.73,12.55-32.87,19.16ZM297.58,624.07c-4.33-2.58-8.26-4.87-12.15-7.23-22.05-13.33-44.07-26.71-66.17-39.97-2.04-1.22-2.92-2.45-2.86-4.88.18-7.34.07-14.67.07-22.6,13.13,7.92,25.69,15.49,38.25,23.08,13.42,8.12,26.81,16.28,40.27,24.33,1.93,1.14,2.72,2.37,2.66,4.7-.18,7.32-.07,14.64-.07,22.57ZM268.44,572.2c9.86-6.53,19.2-12.71,28.98-19.2v36.71c-9.65-5.83-18.94-11.43-28.98-17.51ZM386.2,573.81c-.02.94-1.26,2.15-2.23,2.75-11.33,6.92-22.71,13.77-34.09,20.6-14.12,8.5-28.25,16.95-42.39,25.42-.82.49-1.68.92-2.93,1.62,0-6.03.47-11.7-.13-17.27-.66-6.1,1.83-9.31,6.99-12.35,23.81-14.05,47.37-28.53,71.03-42.83,1.01-.61,2.09-1.13,3.85-2.09,0,8.49.09,16.34-.1,24.17ZM304.74,589.91v-36.26c9.94,6.39,19.45,12.51,29.38,18.9-9.95,5.88-19.49,11.52-29.38,17.36ZM422.77,600.63c-3.51,3.48-5.19,3.72-9.11,1.45-5.54-3.21-11.05-6.44-16.61-9.61-4.07-2.32-4.11-2.26-3.2-7.91,9.75,5.42,19.31,10.73,28.92,16.07ZM402.15,580.07c-.24-.07-.34-.08-.42-.13q-8.49-4.72-8.49-14.43c0-6.65.02-13.3.05-19.95,0-.16.17-.33.51-.9,11.47,6.55,22.94,13.1,34.82,19.9-9.04,5.29-17.8,10.43-26.47,15.51ZM433.88,550.32c-1.09-.55-2.12-.99-3.08-1.56-8.97-5.27-17.89-10.58-26.89-15.79-1.58-.91-2.16-1.93-2.14-3.77.11-8.23.04-16.48.04-25.03h32.07v46.15ZM431.38,463.22c-10.31,5.71-20.59,11.48-30.83,17.32-1.78,1.02-3.17.92-4.88-.13-5.97-3.64-12-7.15-18.48-10.99-1.2,1.99-2.45,3.95-3.8,5.83,4.83,2.84,9.66,5.66,14.42,8.61.95.6,1.92,2.06,1.94,3.14.16,16.41.2,32.79.14,49.19,0,1.04-.83,2.49-1.72,3.05-9.98,6.26-20.03,12.42-30.12,18.49-.72.45-2.17.35-2.94-.09-16.51-9.56-32.97-19.19-49.43-28.85-.5-.29-1.25-.81-1.23-1.19.22-3.87-1.39-7.94,1.14-11.56.88-1.23,1.79-2.47,2.71-3.73-2.48.22-4.97.31-7.5.31s-4.87-.09-7.27-.29c1.43,1.64,2.73,3.3,3.54,5.15,1.2,2.78.76,6.42.41,9.62-.14,1.09-2.16,2.13-3.49,2.91-15.37,9.12-30.79,18.16-46.13,27.32-1.7,1.01-2.85.98-4.53-.08-9.52-6.06-19.09-12.01-28.71-17.93-1.62-.99-2.28-2.1-2.27-4.06.05-16-.02-31.99.02-48,0-1.03.4-2.57,1.13-3.03,4.79-2.99,9.62-5.89,14.75-8.95-10.2-14.32-16.18-31.8-16.18-50.68,0-.28,0-.56,0-.82-4.01,1.98-7.79,4.46-11.71,6.67-.26.14-.55.2-1.28.47v-10.71c0-4.26-.05-8.55.08-12.81.03-.88.6-2.17,1.31-2.6,5.56-3.23,11.11-6.41,16.65-9.58,1.46-4.09,3.22-8.05,5.24-11.85-9.41,5.44-18.55,10.77-27.79,15.91-2.41,1.33-3.02,2.85-3.01,5.39.13,22.04.12,44.08.16,66.15v3.72c-5.72-3.18-10.83-6.52-16.35-8.94-5.71-2.49-7.06-6.22-6.94-12.19.4-19.64.13-39.32,0-58.97-.02-2.28.66-3.59,2.64-4.76,10.57-6.23,21.09-12.56,31.56-18.98,1.81-1.11,3.14-.95,4.87.06,5.43,3.16,10.95,6.2,16.7,9.42,1.2-2.06,2.51-4.06,3.89-6.02-5.01-2.89-9.83-5.7-14.6-8.57-.68-.42-1-1.86-1-2.85-.05-17.3-.05-34.61.09-51.88.02-1.09.94-2.6,1.92-3.19,9.45-5.79,19-11.45,28.56-17.04.8-.48,2.35-.54,3.13-.1,16.38,9.6,32.69,19.32,49.05,28.95,1.86,1.09,2.5,2.36,2.48,4.53-.09,6.47-.42,9.14-3.11,12.81,2.05-.14,4.11-.22,6.2-.22s4.27.09,6.36.23c-.89-1.28-1.65-2.59-2.1-3.99-1.1-3.41-.52-7.4-.49-11.11,0-.5,1.11-1.05,1.79-1.46,16.64-9.91,33.27-19.84,49.98-29.65.87-.51,2.54-.55,3.4-.05,9.44,5.44,18.8,10.97,28.08,16.63.97.59,1.89,2.11,1.9,3.21.13,17.49.13,34.96.1,52.45,0,.96-.37,2.39-1.05,2.81-4.92,2.95-9.89,5.84-15.04,8.8,1.39,1.96,2.69,4,3.92,6.1,5.62-3.19,11.12-6.17,16.41-9.47,2.58-1.65,4.42-1.48,6.97.09,10.02,6.17,20.2,12.12,30.38,18.05,1.75,1.01,2.48,2.13,2.48,4.21-.05,21.77-.03,43.54.08,65.31.01,2.18-.73,3.41-2.6,4.45ZM438.57,336.52c-5.46,10.25-11,20.47-16.68,30.99-6.52-3.79-12.91-7.44-19.2-11.24-.64-.38-.97-1.66-.99-2.53-.05-12.52-.08-25.04.06-37.57,0-1.09.94-2.59,1.9-3.16,5.72-3.47,11.57-6.72,17.64-10.21,5.78,10.61,11.51,21.08,17.16,31.57.32.58.42,1.6.12,2.15ZM440.86,333.9c5.35-10.09,10.86-20.1,16.42-30.33,6.76,3.96,13.26,7.7,19.65,11.58.75.45,1.44,1.69,1.44,2.57.09,11.72.06,23.44-.03,35.17,0,.93-.52,2.3-1.24,2.72-6.53,3.83-13.17,7.46-20.08,11.32-2.07-3.76-4.05-7.29-5.97-10.84-3.35-6.23-6.72-12.42-9.94-18.71-.51-.97-.72-2.58-.26-3.47ZM441.38,435.11c4.67,2.67,9.14,5.21,13.91,7.95-4.75,2.73-9.17,5.24-13.91,7.97v-15.92ZM464.8,446.42c.59-.33,1.78-.08,2.44.31,6.08,3.47,12.11,6.99,18.11,10.59.64.39,1.28,1.36,1.3,2.06.08,8.13.05,16.27.05,25.14-15.44-8.49-30.21-16.59-45.46-24.97,8.13-4.56,15.81-8.9,23.55-13.12ZM453.53,481.73c1.2,2.18,2.03,4.81,2.15,7.28.52,10.4,7.87,17.66,18.38,17.71,2.39.02,4.78,0,7.38,0v24.19c-7.48,2.41-14.87,1.92-22.02-1.4-12.16-5.66-18.94-14.84-18.76-28.58.12-9.62.03-19.25.03-29.31,5.43,2.51,10.16,5.17,12.84,10.1ZM441.16,393.67c.01-.74.9-1.71,1.65-2.16,14.24-8.46,28.53-16.86,42.84-25.2.76-.45,2.17-.55,2.92-.14,6.85,3.69,13.61,7.53,20.96,11.64-22.82,13.33-45.28,26.48-68.43,40.01,0-8.5-.05-16.33.07-24.15Z" style="fill: none; stroke: #1d1d1b; stroke-miterlimit: 10; stroke-width: .5px;"/>
  <path d="M108.2,504.62c-.01,7.84-.02,15.67-.03,23.51,0,.05,0,.11-.02.16,0,.06,0,.13-.02.2.01.01.01.02,0,.03-.01.05-.02.12-.04.18-.02.09-.04.17-.06.26-.03.1-.06.18-.1.27-.06.16-.14.31-.21.45-.06.11-.13.21-.19.3-.04.06-.09.12-.13.16-.13.15-.26.28-.41.36-2.64,1.57-5.27,3.11-7.94,4.67-1.78,1.04-3.57,2.08-5.38,3.11-1.58.91-3.16,1.83-4.76,2.75-.25.15-.5.29-.76.44-1.49-3.66-2.29-7.62-2.29-11.7v-114.31c.25.15.49.3.74.45,2.71,1.65,5.21,3.19,7.75,4.67,2.03,1.18,4.07,2.31,6.12,3.47,1.02.58,2.04,1.16,3.06,1.74.5.29,1.01.59,1.52.89.5.3,1,.6,1.5.91.2.13.42.31.6.51.12.13.23.27.32.41.01.01.02.01.02.02.06.09.12.17.17.27.07.12.15.25.2.37.06.14.12.27.16.4.09.26.14.51.14.75.06,24.76.08,49.53.05,74.29Z" style="fill: none; stroke: #1d1d1b; stroke-miterlimit: 10; stroke-width: .5px;"/>
  <path d="M91.02,370.61c-1.72.95-3.44,1.93-5.19,2.91v-56.39c0-5.37,1.39-10.53,3.92-15.07,2.27,1.36,4.47,2.67,6.67,3.98,1.25.75,2.51,1.49,3.77,2.22.42.25.84.49,1.25.75.42.25.84.49,1.25.75.73.44,1.45.88,2.17,1.35.51.32,1.02.65,1.52,1,.94.63,1.84,2.11,1.85,3.21.03,3.74.05,7.47.06,11.21.01,3.34.02,6.69.02,10.04,0,3.9,0,7.8-.01,11.71-.01,3.51-.02,7.02-.03,10.54,0,.11-.01.22-.02.34-.08.83-.41,1.85-.95,2.17-5.34,3.11-10.73,6.15-16.3,9.28Z" style="fill: none; stroke: #1d1d1b; stroke-miterlimit: 10; stroke-width: .5px;"/>
  <path d="M115.47,484.8v-12.19c0-3.97-.13-7.95.09-11.91.06-1.13.84-2.67,1.78-3.24,6.04-3.7,12.18-7.24,18.37-10.71.79-.44,2.22-.6,2.96-.19,7.48,4.17,14.88,8.5,22.7,13.01-15.31,8.42-30.32,16.69-45.89,25.25Z" style="fill: none; stroke: #1d1d1b; stroke-miterlimit: 10; stroke-width: .5px;"/>
  <path d="M86.09,406.81c-.1-.1-.18-.19-.26-.3v-24.78c25.57,14.86,50.7,29.47,76.28,44.35-3.18,1.91-5.96,3.6-8.77,5.27-3.69,2.19-7.44,4.28-11.05,6.58-.69.43-1.27.63-1.84.63-.31,0-.61-.05-.92-.16-.31-.11-.64-.28-1-.48-3.31-1.96-6.64-3.92-9.95-5.88-13.87-8.18-27.76-16.33-41.62-24.53-.19-.11-.39-.26-.58-.42-.1-.09-.19-.18-.29-.28Z" style="fill: none; stroke: #1d1d1b; stroke-miterlimit: 10; stroke-width: .5px;"/>
  <path d="M123.61,352.97c-.15-11.82-.16-23.63-.13-35.45,0-.75.49-1.82,1.09-2.18,6.58-3.94,13.23-7.77,20.04-11.74,3.37,6.3,6.68,12.52,9.99,18.74,1.6,2.99,2.9,6.17,4.84,8.91,2.18,3.09,2.01,5.59.11,8.82-4.52,7.72-8.58,15.7-12.83,23.57-.65,1.21-1.37,2.4-2.06,3.6-6.57-3.77-13.01-7.37-19.31-11.19-.9-.54-1.73-2.01-1.74-3.07Z" style="fill: none; stroke: #1d1d1b; stroke-miterlimit: 10; stroke-width: .5px;"/>
  <path d="M161.22,435.11v15.58c-4.48-2.63-8.61-5.05-13.19-7.74,4.58-2.72,8.71-5.18,13.19-7.85Z" style="fill: none; stroke: #1d1d1b; stroke-miterlimit: 10; stroke-width: .5px;"/>
  <path d="M119.93,527.24c.19-6.73.06-13.49.06-20.65,1.22,0,2.48.09,3.72-.02,3.67-.33,7.53-.12,10.94-1.24,7.37-2.45,11.45-8.12,11.77-15.71.3-7.24,4.28-11.69,9.79-15.37,1.54-1.04,3.31-1.76,5.03-2.64,0,11.69.59,23.03-.14,34.29-1.1,17.09-20.85,29.42-37.37,25.9-2.93-.62-3.89-1.64-3.81-4.56Z" style="fill: none; stroke: #1d1d1b; stroke-miterlimit: 10; stroke-width: .5px;"/>
  <path d="M161.38,395.39c-.23,7.14-.08,14.29-.08,22-22.89-13.38-45.19-26.41-67.79-39.61.85-.61,1.34-1.03,1.9-1.35,5.22-2.94,10.57-5.67,15.62-8.88,3-1.92,5.3-1.91,8.35-.09,12.87,7.67,25.86,15.14,38.87,22.55,2.24,1.28,3.22,2.69,3.13,5.38Z" style="fill: none; stroke: #1d1d1b; stroke-miterlimit: 10; stroke-width: .5px;"/>
  <path d="M96.75,297.57c-.86-.5-1.73-1.02-2.59-1.53,2.07-2.22,4.48-4.15,7.18-5.71l70.15-40.43c.49.17,1,.42,1.53.75,6.28,3.85,12.71,7.49,19.36,11.37,0,.01.01.01.01.01-1.21.67-2.42,1.35-3.61,2.02-1.31.73-2.62,1.46-3.9,2.18-1.07.6-2.13,1.19-3.18,1.79-1.17.65-2.34,1.32-3.51,1.97-21.11,11.93-42.22,23.86-63.29,35.86-1.02.58-1.84.83-2.72.69-.17-.02-.33-.06-.5-.12-.16-.05-.33-.13-.51-.21-.18-.09-.35-.18-.55-.3-.8-.49-1.61-1-2.41-1.49-.81-.49-1.62-.97-2.43-1.47-.82-.49-1.63-.98-2.46-1.48-1.13-.67-2.25-1.35-3.4-2.03-1.05-.61-2.1-1.24-3.16-1.87Z" style="fill: none; stroke: #1d1d1b; stroke-miterlimit: 10; stroke-width: .5px;"/>
  <path d="M190.49,585.68c-5.69,3.26-11.18,6.44-16.73,9.48-.43.22-.86.46-1.29.7-.06.03-.12.06-.19.09-.13.04-.28.07-.44.1-.87.07-2.06-.28-2.82-.72-17.05-9.83-34.05-19.71-51.04-29.63-7.36-4.29-14.68-8.66-22-13.02-1.58-1.42-2.99-3.01-4.22-4.71,2.42-1.44,4.82-2.88,7.19-4.29,1.96-1.17,3.9-2.32,5.84-3.46,2.92-1.72,5.82-3.41,8.75-5.07.12-.06.26-.11.41-.14.34-.07.75-.05,1.19.02.12.02.24.04.36.07.24.06.48.14.72.22.12.04.23.09.33.14.14.06.27.14.39.2.08.03.14.07.2.12,1.03.69,2.06,1.37,3.08,2.07,1.03.7,2.05,1.38,3.08,2.08,2.04,1.39,4.07,2.78,6.12,4.17,1.36.92,2.72,1.85,4.09,2.78,2.72,1.85,5.45,3.7,8.19,5.53,2.74,1.83,5.5,3.63,8.28,5.41,1.62,1.03,3.24,2.06,4.87,3.07,1.63,1.02,3.26,2.03,4.9,3.04,2.46,1.51,4.91,3.02,7.38,4.51,2.47,1.5,4.93,2.99,7.4,4.47,2.64,1.59,5.29,3.19,7.92,4.78,2.29,1.38,4.59,2.77,6.88,4.16.2.13.41.25.62.37s.43.26.65.4c.73.44,1.53.92,2.51,1.52-.88.51-1.76,1.02-2.63,1.52Z" style="fill: none; stroke: #1d1d1b; stroke-miterlimit: 10; stroke-width: .5px;"/>
  <path d="M200.71,504.18v12.2c.01,4.46.1,8.94-.02,13.4-.02.91-.51,2.22-1.22,2.64-9.98,6.04-20.05,11.96-30.1,17.9-.15.09-.39.03-.81.05v-46.2h32.15Z" style="fill: none; stroke: #1d1d1b; stroke-miterlimit: 10; stroke-width: .5px;"/>
  <path d="M200.76,316.36c.06,12.42.01,24.83-.12,37.25-.01.89-.63,2.15-1.37,2.58-6.37,3.71-12.83,7.29-19.44,10.99-.48-.72-.96-1.33-1.32-2-4.92-9.32-9.85-18.64-14.68-28-.45-.88-.61-2.34-.18-3.17,5.28-10.15,10.67-20.22,16.04-30.31.24-.43.5-.83.89-1.47,6.37,3.79,12.5,7.35,18.51,11.11.87.55,1.66,1.98,1.67,3.02Z" style="fill: none; stroke: #1d1d1b; stroke-miterlimit: 10; stroke-width: .5px;"/>
  <path d="M208.67,584.64c1.3,4.34-.15,6.5-3.69,8.26-5.44,2.7-10.55,6.05-15.8,9.12-3.91,2.29-4.77,2.2-9.02-1.1,9.52-5.45,18.91-10.8,28.51-16.28Z" style="fill: none; stroke: #1d1d1b; stroke-miterlimit: 10; stroke-width: .5px;"/>
  <path d="M208.9,262.36c-9.79-5.61-19.43-11.14-29.32-16.83.4-.36.78-.69,1.16-.96.01-.01.03-.02.04-.03l1.51-.88s.06-.03.09-.04c1.7-.71,3.4-.45,5.47.86,6.22,3.96,12.77,7.4,19.18,11.08,2.28,1.32,2.27,1.34,1.88,6.81Z" style="fill: none; stroke: #1d1d1b; stroke-miterlimit: 10; stroke-width: .5px;"/>
  <path d="M209.36,572.44c.02,1.95-.6,3.04-2.26,4.04-6.33,3.81-6.29,3.86-12.54.12-6.57-3.94-13.16-7.86-20.1-12.01,11.72-6.8,22.92-13.29,34.65-20.1.1,1.39.21,2.3.21,3.21.01,8.25-.08,16.49.04,24.75Z" style="fill: none; stroke: #1d1d1b; stroke-miterlimit: 10; stroke-width: .5px;"/>
  <path d="M209.43,279.64c-.64,7.27-.15,14.64-.15,22.61-12.12-7.06-23.62-13.75-35.65-20.77,2.2-1.28,3.78-2.22,5.39-3.15,6.38-3.69,12.73-7.46,19.19-11.01.96-.54,2.58-.35,3.74.01,6.09,1.91,8.04,5.96,7.47,12.31Z" style="fill: none; stroke: #1d1d1b; stroke-miterlimit: 10; stroke-width: .5px;"/>
  <path d="M248.78,243.73c-10.82,6.4-21.29,12.6-32.22,19.06,0-13.05.01-25.4.01-38.35,10.75,6.43,21.26,12.73,32.21,19.29Z" style="fill: none; stroke: #1d1d1b; stroke-miterlimit: 10; stroke-width: .5px;"/>
  <path d="M249.8,603.76c-11.15,6.61-21.73,12.54-32.87,19.16,0-13.23-.19-25.64-.19-38.96,11,6.58,21.81,13.06,33.07,19.8Z" style="fill: none; stroke: #1d1d1b; stroke-miterlimit: 10; stroke-width: .5px;"/>
  <path d="M254.81,238.58c-10.25-5.99-20.45-12.06-31.23-18.46,2.53-1.41,4.46-2.58,6.48-3.56.49-.24,1.39-.11,1.91.18,10.27,5.95,20.52,11.96,30.77,17.95.06.03.07.17.16.42-1.85,1.22-3.7,2.56-5.68,3.64-.6.33-1.77.21-2.4-.16Z" style="fill: none; stroke: #1d1d1b; stroke-miterlimit: 10; stroke-width: .5px;"/>
  <path d="M248.86,621.82c-5.08,3.02-10.18,6.04-15.2,9.15-.63.4-1.21.7-1.78.85h-.01l-7.48-4.31c6.98-4.21,13.52-8.15,20.05-12.07,3.42-2.06,6.92-3.99,10.28-6.13,1.72-1.1,3.12-1.34,4.81.06.17.14.34.28.51.41.35.27.72.51,1.12.75.58.36,1.2.73,1.87,1.11.43.26.88.51,1.35.81-1.38.86-2.72,1.67-4.03,2.47-1.76,1.06-3.45,2.1-5.15,3.13-.42.25-.85.5-1.27.76-1.68,1.01-3.38,2.01-5.07,3.02Z" style="fill: none; stroke: #1d1d1b; stroke-miterlimit: 10; stroke-width: .5px;"/>
  <path d="M238.65,211.19h.01s13.37-7.73,13.37-7.73c.77-.45,1.55-.89,2.34-1.34,3.68-2.1,7.37-4.19,11.06-6.24.66-.36,2.08.06,2.88.55,9.62,5.71,19.17,11.49,29.01,17.42-8.86,5.29-17.57,10.51-26.33,15.66-.55.33-1.61.37-2.14.05-9.9-5.8-19.75-11.69-29.6-17.56-.23-.13-.33-.44-.6-.8Z" style="fill: none; stroke: #1d1d1b; stroke-miterlimit: 10; stroke-width: .5px;"/>
  <path d="M266.97,276.85c10.35-6.26,20.21-12.22,30.43-18.41v36.8c-10.27-6.21-20.15-12.18-30.43-18.39Z" style="fill: none; stroke: #1d1d1b; stroke-miterlimit: 10; stroke-width: .5px;"/>
  <path d="M297.42,589.71c-9.65-5.82-18.93-11.43-28.98-17.5,9.86-6.54,19.2-12.72,28.98-19.2v36.7Z" style="fill: none; stroke: #1d1d1b; stroke-miterlimit: 10; stroke-width: .5px;"/>
  <path d="M223.51,293.4c-2.21,1.3-4.42,2.58-7.05,4.11.01-8.68-.02-16.88.05-25.08.01-.61.62-1.45,1.19-1.79,26.27-15.95,52.57-31.84,78.86-47.75.16-.1.38-.1,1.03-.25v5.51c0,6.26-.08,12.52.05,18.77.04,2.04-.63,3.18-2.41,4.23-23.94,14.03-47.82,28.14-71.72,42.24Z" style="fill: none; stroke: #1d1d1b; stroke-miterlimit: 10; stroke-width: .5px;"/>
  <path d="M216.39,571.99c.18-7.33.08-14.66.08-22.6,13.12,7.92,25.69,15.49,38.24,23.08,13.42,8.11,26.82,16.27,40.27,24.32,1.93,1.15,2.72,2.38,2.67,4.7-.18,7.32-.07,14.64-.07,22.57-4.33-2.58-8.26-4.87-12.15-7.23-22.05-13.34-44.08-26.71-66.17-39.97-2.04-1.22-2.92-2.45-2.86-4.88Z" style="fill: none; stroke: #1d1d1b; stroke-miterlimit: 10; stroke-width: .5px;"/>
  <path d="M290.58,637.9c-7.47,4.44-14.92,8.89-22.43,13.28-.14.07-.3.16-.47.25h-.01c-.17.07-.34.15-.54.21-.18.06-.38.12-.56.16h-.02l-27.1-15.62s.04-.04.08-.07c.54-.44.9-.77,1.32-1.02,9.21-5.61,18.46-11.15,27.63-16.84.11-.06.2-.13.3-.18.2-.11.4-.2.58-.29.28-.13.55-.21.81-.26.8-.16,1.59.03,2.57.63,7.52,4.56,15.13,8.94,22.71,13.4.53.3,1.03.63,1.62,1.02.24.15.48.31.75.49.13.07.27.17.42.27-.34.21-.68.41-1.01.61-2.35,1.39-4.5,2.68-6.65,3.95Z" style="fill: none; stroke: #1d1d1b; stroke-miterlimit: 10; stroke-width: .5px;"/>
  <path d="M334.12,572.55c-9.95,5.88-19.49,11.52-29.38,17.36v-36.26c9.94,6.39,19.45,12.51,29.38,18.9Z" style="fill: none; stroke: #1d1d1b; stroke-miterlimit: 10; stroke-width: .5px;"/>
  <path d="M304.77,258.2c10.55,6.26,20.62,12.25,31.21,18.54-10.6,6.27-20.77,12.29-31.21,18.46v-37Z" style="fill: none; stroke: #1d1d1b; stroke-miterlimit: 10; stroke-width: .5px;"/>
  <path d="M278.65,194.04c-1.57-.92-3.15-1.85-4.74-2.79,3.42-2,6.78-3.96,10.09-5.9,1.72-1.01,3.42-2,5.11-3,.01-.01.03-.01.04-.01,8.9-3.79,19.14-3.23,27.64,1.67.01,0,.02.01.03.02,3.68,2.14,7.35,4.29,11.03,6.44.15.09.2.32.34.56-4.49,2.68-9,5.36-13.52,8.06s-9.07,5.42-13.67,8.16c0,.01-.01.01-.01.01-2.21-1.31-4.44-2.62-6.67-3.95-3.35-1.98-6.71-3.97-10.12-5.97-1.84-1.09-3.7-2.18-5.56-3.3Z" style="fill: none; stroke: #1d1d1b; stroke-miterlimit: 10; stroke-width: .5px;"/>
  <path d="M328.41,656.21l-11.61,6.69c-9.56,5.51-21.33,5.53-30.9.05-.04-.01-.07-.03-.11-.05-.01,0-.02,0-.03-.01h0c-.15-.09-.29-.17-.43-.26l-11.18-6.44c3.73-2.23,7.41-4.43,11.04-6.59,1.21-.73,2.41-1.44,3.62-2.16,1.72-1.03,3.42-2.03,5.11-3.04,2.19-1.3,4.37-2.59,6.56-3.87h.01c.08-.04.17-.07.27-.11.33-.06.75-.02,1.14.09.26.07.5.17.7.29,2.17,1.28,4.33,2.57,6.51,3.86,1.59.94,3.18,1.89,4.78,2.86,1.6.95,3.21,1.92,4.8,2.88,3.22,1.92,6.44,3.86,9.71,5.82Z" style="fill: none; stroke: #1d1d1b; stroke-miterlimit: 10; stroke-width: .5px;"/>
  <path d="M362.08,635.72c.27.16.51.35.84.6l-27.12,15.63c-.14-.03-.28-.06-.44-.12-.06-.02-.14-.04-.2-.07-.03-.01-.08-.02-.11-.04-.14-.05-.28-.12-.42-.19-.17-.09-.34-.18-.51-.29-9.08-5.62-18.26-11.06-27.42-16.56-.65-.4-1.29-.81-2.34-1.48,8.78-5.23,17.08-10.21,25.43-15.09.76-.44,2.18-.63,2.85-.24,9.85,5.88,19.63,11.88,29.43,17.85Z" style="fill: none; stroke: #1d1d1b; stroke-miterlimit: 10; stroke-width: .5px;"/>
  <path d="M322.76,202.97c3.95-2.35,7.86-4.76,11.87-7.01.53-.3,1.32-.51,1.99-.51h.01l27.87,16.07h.01s.03.06.05.1c.06.11.15.25.26.41-2.66,1.54-5.33,3.07-7.99,4.6-5.33,3.07-10.65,6.14-15.99,9.22-2.66,1.54-5.34,3.08-8.01,4.62-9.16-5.56-18.28-11.1-27.79-16.87,6.12-3.67,11.92-7.15,17.71-10.62Z" style="fill: none; stroke: #1d1d1b; stroke-miterlimit: 10; stroke-width: .5px;"/>
  <path d="M358.71,224.34c3.54-2.04,7.18-3.94,10.56-6.22,2.33-1.56,4.22-1.71,6.35.11.73.63,1.63,1.06,3.08,1.96-10.69,6.23-20.83,12.16-31.02,18.01-.6.34-1.72.3-2.36-.02-1.68-.85-3.24-1.95-5.15-3.14,6.36-3.67,12.45-7.18,18.54-10.7Z" style="fill: none; stroke: #1d1d1b; stroke-miterlimit: 10; stroke-width: .5px;"/>
  <path d="M361.6,617.94c5.36,3.17,10.79,6.39,16.35,9.71l-7.67,4.42c-1.03-.61-2.06-1.23-3.08-1.84-9.67-5.81-19.32-11.61-29.27-17.59,2.06-1.36,3.62-2.45,5.18-3.4.23-.14.45-.27.68-.4.09-.05.18-.1.29-.14.31-.12.71-.2,1.07-.2.09,0,.17.01.26.02.1.01.18.02.26.05.07.02.14.05.2.09,2.05,1.2,4.1,2.41,6.14,3.62,1.22.72,2.44,1.43,3.67,2.15,1.97,1.18,3.95,2.33,5.92,3.51Z" style="fill: none; stroke: #1d1d1b; stroke-miterlimit: 10; stroke-width: .5px;"/>
  <path d="M354.04,243.57c10.69-6.3,21.03-12.41,31.7-18.71v37.28c-10.69-6.26-21.05-12.33-31.7-18.57Z" style="fill: none; stroke: #1d1d1b; stroke-miterlimit: 10; stroke-width: .5px;"/>
  <path d="M376.55,589.67c3.11-1.86,6.22-3.74,9.37-5.62,0,13.09,0,25.67-.01,39l-.75.44h-.01c-11.04-6.64-21.55-12.94-32.44-19.48,0-.01-.01-.01-.01-.01,2.8-1.68,5.58-3.35,8.34-5.01,2.08-1.25,4.15-2.49,6.22-3.74.69-.41,1.37-.82,2.06-1.23,2.41-1.46,4.81-2.9,7.24-4.36Z" style="fill: none; stroke: #1d1d1b; stroke-miterlimit: 10; stroke-width: .5px;"/>
  <path d="M385.97,272.02c.14,8.21.09,16.43.09,25.19-3-1.7-5.59-3.13-8.13-4.61-23.33-13.71-46.65-27.48-70.03-41.11-2.34-1.37-3.31-2.85-3.23-5.61.23-6.74.06-13.51.05-20.27v-3.45c3.92,2.34,7.33,4.37,10.73,6.41,22.86,13.73,45.72,27.47,68.55,41.25.83.49,1.95,1.44,1.96,2.2Z" style="fill: none; stroke: #1d1d1b; stroke-miterlimit: 10; stroke-width: .5px;"/>
  <path d="M386.3,549.64c0,8.49.09,16.33-.1,24.17-.02.94-1.27,2.15-2.24,2.74-11.32,6.93-22.71,13.78-34.08,20.6-14.12,8.49-28.25,16.94-42.39,25.41-.81.49-1.67.92-2.93,1.62,0-6.03.47-11.7-.13-17.27-.65-6.1,1.83-9.31,6.99-12.35,23.81-14.04,47.38-28.53,71.03-42.84,1.01-.61,2.08-1.12,3.85-2.09Z" style="fill: none; stroke: #1d1d1b; stroke-miterlimit: 10; stroke-width: .5px;"/>
  <path d="M217.14,395.24c-3.19,8.94-4.96,18.56-5.05,28.55-4.01,1.98-7.79,4.46-11.71,6.67-.26.14-.55.2-1.28.47v-10.71c0-4.26-.05-8.55.08-12.81.03-.88.6-2.17,1.31-2.6,5.56-3.23,11.11-6.41,16.65-9.58Z" style="fill: none; stroke: #1d1d1b; stroke-miterlimit: 10; stroke-width: .5px;"/>
  <path d="M224.2,380.19c-.64,1.05-1.22,2.12-1.82,3.2-9.41,5.44-18.55,10.77-27.79,15.91-2.41,1.33-3.02,2.85-3.01,5.39.13,22.04.12,44.08.16,66.15v3.72c-5.72-3.18-10.83-6.52-16.35-8.94-5.71-2.49-7.06-6.22-6.94-12.19.4-19.64.13-39.32,0-58.97-.02-2.28.66-3.59,2.64-4.76,10.57-6.23,21.09-12.56,31.56-18.98,1.81-1.11,3.14-.95,4.87.06,5.43,3.16,10.95,6.2,16.7,9.42Z" style="fill: none; stroke: #1d1d1b; stroke-miterlimit: 10; stroke-width: .5px;"/>
  <path d="M284.93,511.23c-16.65,10.19-33.16,20.29-50.19,30.71v-58.58c5.33,5.9,11.44,11.07,18.17,15.36-3.18,1.87-6.35,3.78-9.51,5.69-.66.41-1.42,1.33-1.42,2.02-.11,7.21-.06,14.42-.06,22.29,11.1-6.77,21.91-13.35,32.75-19.97,3.35,1.02,6.77,1.84,10.27,2.48Z" style="fill: none; stroke: #1d1d1b; stroke-miterlimit: 10; stroke-width: .5px;"/>
  <path d="M297.48,527.11c-.14,1.09-2.16,2.13-3.49,2.91-15.37,9.12-30.79,18.16-46.13,27.32-1.7,1.01-2.85.98-4.53-.08-9.52-6.06-19.09-12.01-28.71-17.93-1.62-.99-2.28-2.1-2.27-4.06.05-16-.02-31.99.02-48,0-1.03.4-2.57,1.13-3.03,4.79-2.99,9.62-5.89,14.75-8.95,2.01,2.83,4.17,5.52,6.48,8.08v58.58c17.04-10.42,33.54-20.52,50.19-30.71,2.83.52,5.71.87,8.61,1.11,1.43,1.64,2.73,3.3,3.54,5.15,1.2,2.78.76,6.42.41,9.62Z" style="fill: none; stroke: #1d1d1b; stroke-miterlimit: 10; stroke-width: .5px;"/>
  <path d="M284.72,338.05c-3.5.63-6.95,1.47-10.28,2.51h-.02c-10.77-6.57-21.4-13.06-32.35-19.74,0,8.59-.06,16.52.1,24.44,0,.81,1.08,1.82,1.9,2.32,2.3,1.42,4.63,2.81,6.94,4.18-6.02,4.05-11.5,8.83-16.32,14.19v-58.27c16.95,10.3,33.49,20.33,50.04,30.37Z" style="fill: none; stroke: #1d1d1b; stroke-miterlimit: 10; stroke-width: .5px;"/>
  <path d="M297.72,324.01c-.09,6.47-.42,9.14-3.11,12.81-3.35.23-6.65.63-9.89,1.23-16.54-10.04-33.09-20.07-50.04-30.37v58.27c-2.37,2.62-4.57,5.36-6.59,8.23-5.01-2.89-9.83-5.7-14.6-8.57-.68-.42-1-1.86-1-2.85-.05-17.3-.05-34.61.09-51.88.02-1.09.94-2.6,1.92-3.19,9.45-5.79,19-11.45,28.56-17.04.8-.48,2.35-.54,3.13-.1,16.38,9.6,32.69,19.32,49.05,28.95,1.86,1.09,2.5,2.36,2.48,4.53Z" style="fill: none; stroke: #1d1d1b; stroke-miterlimit: 10; stroke-width: .5px;"/>
  <path d="M367.5,308.11v58.48c-4.9-5.54-10.51-10.48-16.66-14.65,2.6-1.56,5.21-3.11,7.8-4.7.66-.4,1.46-1.28,1.47-1.95.1-7.79.07-15.59.07-23.92-10.95,6.61-21.63,13.07-32.18,19.46-3.33-1.07-6.73-1.94-10.23-2.6,16.52-10.01,32.94-19.94,49.73-30.12Z" style="fill: none; stroke: #1d1d1b; stroke-miterlimit: 10; stroke-width: .5px;"/>
  <path d="M389.82,362.87c0,.96-.37,2.39-1.05,2.81-4.92,2.95-9.89,5.84-15.04,8.8-1.93-2.76-4-5.38-6.23-7.89v-58.48c-16.79,10.17-33.2,20.1-49.73,30.12-3.47-.67-7-1.14-10.61-1.4-.89-1.28-1.65-2.59-2.1-3.99-1.1-3.41-.52-7.4-.49-11.11,0-.5,1.11-1.05,1.79-1.46,16.64-9.91,33.27-19.84,49.98-29.65.87-.51,2.54-.55,3.4-.05,9.44,5.44,18.8,10.97,28.08,16.63.97.59,1.89,2.11,1.9,3.21.13,17.49.13,34.96.1,52.45Z" style="fill: none; stroke: #1d1d1b; stroke-miterlimit: 10; stroke-width: .5px;"/>
  <path d="M367.41,482.75v58.92c-16.91-10.38-33.37-20.49-49.88-30.61,3.41-.63,6.71-1.47,9.96-2.48,10.77,6.56,21.58,13.13,32.7,19.89,0-7.69.05-14.7-.08-21.71,0-.75-.83-1.73-1.54-2.19-3.24-2-6.49-3.97-9.76-5.93,6.93-4.42,13.18-9.77,18.6-15.89Z" style="fill: none; stroke: #1d1d1b; stroke-miterlimit: 10; stroke-width: .5px;"/>
  <path d="M389.88,536.19c0,1.04-.83,2.49-1.72,3.05-9.98,6.26-20.03,12.42-30.12,18.49-.72.45-2.17.35-2.94-.09-16.51-9.56-32.97-19.19-49.43-28.85-.5-.29-1.25-.81-1.23-1.19.22-3.87-1.39-7.94,1.14-11.56.88-1.23,1.79-2.47,2.71-3.73,3.13-.26,6.21-.68,9.23-1.26,16.5,10.12,32.97,20.23,49.88,30.61v-58.92c2.13-2.39,4.13-4.9,5.98-7.5,4.83,2.84,9.66,5.66,14.42,8.61.95.6,1.92,2.06,1.94,3.14.16,16.41.2,32.79.14,49.19Z" style="fill: none; stroke: #1d1d1b; stroke-miterlimit: 10; stroke-width: .5px;"/>
  <path d="M411.2,446.86c0,1.86-.66,2.9-2.2,3.76-2.91,1.57-5.73,3.29-8.57,4.94-7.52,4.39-15.02,8.77-22.99,13.44,2.38-4.02,4.45-8.29,6.16-12.69,6.2-3.52,12.38-7.06,18.54-10.65.7-.4,1.15-1.72,1.18-2.64.12-4.18.05-8.36.04-12.53v-11.11c-4.87,2.74-9.39,5.34-13.87,7.84.03-.86.04-1.73.04-2.61.01-15.18-3.87-29.44-10.66-41.9.42.27.82.53,1.23.76,9.24,5.37,18.46,10.77,27.75,16.03,2.32,1.31,3.37,2.81,3.33,5.62-.14,13.92-.06,27.83.03,41.73Z" style="fill: none; stroke: #1d1d1b; stroke-miterlimit: 10; stroke-width: .5px;"/>
  <path d="M433.98,458.77c.01,2.18-.73,3.41-2.6,4.45-10.31,5.71-20.59,11.48-30.83,17.32-1.78,1.02-3.17.92-4.88-.13-5.97-3.64-12-7.15-18.48-10.99.09-.14.17-.27.25-.42,7.96-4.67,15.47-9.05,22.99-13.44,2.84-1.65,5.66-3.37,8.57-4.94,1.55-.85,2.21-1.89,2.2-3.76-.09-13.91-.17-27.82-.03-41.73.04-2.82-1-4.31-3.33-5.62-9.29-5.26-18.51-10.66-27.75-16.03-.41-.24-.81-.5-1.23-.76-.4-.7-.8-1.44-1.21-2.14,5.62-3.19,11.12-6.17,16.41-9.47,2.58-1.65,4.42-1.48,6.97.09,10.02,6.17,20.2,12.12,30.38,18.05,1.75,1.01,2.48,2.13,2.48,4.21-.05,21.77-.03,43.54.08,65.31Z" style="fill: none; stroke: #1d1d1b; stroke-miterlimit: 10; stroke-width: .5px;"/>
  <path d="M393.24,565.52c0-6.66.02-13.3.05-19.95,0-.16.17-.32.5-.9,11.47,6.55,22.94,13.1,34.82,19.9-9.04,5.29-17.8,10.43-26.47,15.51-.24-.06-.33-.07-.42-.13q-8.49-4.72-8.49-14.43Z" style="fill: none; stroke: #1d1d1b; stroke-miterlimit: 10; stroke-width: .5px;"/>
  <path d="M393.25,302.5c0-10.46-.01-19.96.04-29.47,0-.59.39-1.42.86-1.71,2.54-1.58,5.13-3.1,7.77-4.48.53-.27,1.55-.02,2.16.32,8.21,4.68,16.39,9.43,25.2,14.51-12.08,6.99-23.72,13.71-36.03,20.83Z" style="fill: none; stroke: #1d1d1b; stroke-miterlimit: 10; stroke-width: .5px;"/>
  <path d="M393.86,584.57c9.75,5.42,19.31,10.73,28.92,16.07-3.51,3.48-5.2,3.71-9.11,1.44-5.53-3.21-11.04-6.44-16.61-9.6-4.07-2.32-4.11-2.27-3.2-7.91Z" style="fill: none; stroke: #1d1d1b; stroke-miterlimit: 10; stroke-width: .5px;"/>
  <path d="M393.54,261.27c-.08-.44-.11-.86-.11-1.24,0-.21.01-.42.03-.61s.05-.37.1-.56c.04-.19.1-.39.17-.58.05-.13.11-.26.17-.37.18-.37.44-.72.76-1.05l.19-.19c.05-.05.11-.1.16-.14.04-.05.11-.1.16-.14.12-.1.24-.19.36-.28.13-.09.26-.17.4-.26.14-.09.29-.17.44-.26.1-.06.19-.12.3-.17.76-.4,1.52-.79,2.28-1.2,1.51-.81,3.01-1.65,4.51-2.5,1.49-.85,2.97-1.72,4.45-2.6,1.48-.89,2.95-1.79,4.41-2.7.73-.46,1.45-.92,2.18-1.38.21-.14.42-.27.63-.39.42-.25.83-.47,1.23-.65.19-.09.39-.17.57-.24.19-.09.38-.15.57-.2.11-.03.2-.06.3-.09.15-.05.31-.09.47-.11.25-.04.49-.07.73-.1.12-.01.21-.01.32-.01.06,0,.13-.01.2-.01h.01s.01.01.01.01t.02,0s.01-.01.02,0l4.21,2.43c-7.48,4.24-14.9,8.46-22.38,12.68-2.52,1.43-5.05,2.87-7.59,4.3h0c-.14-.5-.25-.97-.31-1.41Z" style="fill: none; stroke: #1d1d1b; stroke-miterlimit: 10; stroke-width: .5px;"/>
  <path d="M401.77,529.21c.11-8.23.04-16.47.04-25.03h32.07v46.14c-1.09-.55-2.12-1-3.08-1.56-8.96-5.27-17.89-10.58-26.89-15.79-1.58-.91-2.17-1.94-2.14-3.77Z" style="fill: none; stroke: #1d1d1b; stroke-miterlimit: 10; stroke-width: .5px;"/>
  <path d="M421.29,302.79c5.78,10.61,11.5,21.08,17.15,31.58.32.59.42,1.59.12,2.15-5.46,10.25-11,20.48-16.68,30.99-6.52-3.79-12.91-7.44-19.2-11.24-.63-.37-.98-1.66-.99-2.53-.05-12.52-.09-25.05.05-37.57.01-1.09.94-2.59,1.9-3.17,5.71-3.47,11.57-6.72,17.65-10.21Z" style="fill: none; stroke: #1d1d1b; stroke-miterlimit: 10; stroke-width: .5px;"/>
  <path d="M441.38,435.1c4.67,2.68,9.13,5.22,13.92,7.95-4.75,2.73-9.17,5.24-13.92,7.97v-15.93Z" style="fill: none; stroke: #1d1d1b; stroke-miterlimit: 10; stroke-width: .5px;"/>
  <path d="M441.12,337.38c-.5-.97-.72-2.58-.26-3.47,5.35-10.09,10.86-20.11,16.43-30.33,6.77,3.95,13.25,7.7,19.65,11.57.75.45,1.44,1.69,1.44,2.57.09,11.72.06,23.45-.03,35.17-.01.93-.51,2.3-1.24,2.72-6.53,3.82-13.17,7.46-20.07,11.32-2.07-3.76-4.05-7.29-5.97-10.85-3.35-6.22-6.72-12.42-9.94-18.7Z" style="fill: none; stroke: #1d1d1b; stroke-miterlimit: 10; stroke-width: .5px;"/>
  <path d="M440.69,471.62c5.44,2.52,10.16,5.18,12.84,10.1,1.2,2.18,2.03,4.81,2.16,7.28.51,10.39,7.87,17.65,18.38,17.71,2.39.02,4.78.01,7.38.01v24.18c-7.47,2.41-14.87,1.93-22.02-1.39-12.16-5.66-18.93-14.85-18.75-28.58.12-9.62.02-19.26.02-29.32Z" style="fill: none; stroke: #1d1d1b; stroke-miterlimit: 10; stroke-width: .5px;"/>
  <path d="M441.25,459.54c8.14-4.56,15.81-8.89,23.56-13.12.59-.32,1.78-.07,2.44.31,6.08,3.47,12.12,6.99,18.11,10.59.63.39,1.29,1.36,1.3,2.07.09,8.12.05,16.26.05,25.13-15.44-8.49-30.2-16.59-45.46-24.97Z" style="fill: none; stroke: #1d1d1b; stroke-miterlimit: 10; stroke-width: .5px;"/>
  <path d="M441.09,417.81c0-8.49-.04-16.32.07-24.15.01-.74.9-1.71,1.65-2.16,14.24-8.46,28.52-16.86,42.83-25.2.76-.45,2.18-.55,2.92-.14,6.85,3.69,13.62,7.54,20.96,11.64-22.82,13.34-45.28,26.48-68.44,40.01Z" style="fill: none; stroke: #1d1d1b; stroke-miterlimit: 10; stroke-width: .5px;"/>
  <path d="M421.51,255.77c1.58-.94,3.15-1.88,4.73-2.82,1.67-1,3.36-1.98,5.05-2.95l69.97,40.33c2.71,1.56,5.14,3.5,7.22,5.74-3.92,2.3-7.73,4.54-11.49,6.71-.99.58-1.98,1.15-2.97,1.71-.99.57-1.97,1.13-2.96,1.69-.53.3-1.34.45-2.04.39h-.05c-.1-.01-.19-.02-.28-.04-.2-.04-.39-.11-.55-.19-25.61-14.55-51.17-29.18-76.75-43.81-.05-.03-.04-.17-.14-.57,3.41-2.06,6.82-4.12,10.26-6.19Z" style="fill: none; stroke: #1d1d1b; stroke-miterlimit: 10; stroke-width: .5px;"/>
  <path d="M510.87,547.92c-1.87,2.58-4.14,4.87-6.75,6.79-.02.02-.05.03-.08.05-.02.02-.05.04-.07.05-10.29,6-20.59,12.01-30.88,18-.48.28-.96.56-1.44.83l-39.21,22.59h-.01c-.17.05-.35.09-.53.1-.14.02-.28.03-.41.03-.35,0-.69-.05-.92-.19-6.86-3.86-13.63-7.89-20.68-12.02,7.26-4.29,14.36-8.17,21.11-12.54h.01c9.08-5.9,18.13-11.83,27.17-17.79,9.03-5.96,18.06-11.96,27.06-17.95,1.76-1.17,2.93-1.24,4.74-.15,6.8,4.09,13.69,8.04,20.89,12.2Z" style="fill: none; stroke: #1d1d1b; stroke-miterlimit: 10; stroke-width: .5px;"/>
  <path d="M503.97,554.81c-.87.63-1.77,1.22-2.71,1.77l-28.17,16.24c10.29-5.99,20.59-12,30.88-18Z" style="fill: none; stroke: #1d1d1b; stroke-miterlimit: 10; stroke-width: .5px;"/>
  <path d="M516.76,317.13v56.31c-.71-.3-1.32-.54-1.89-.85-6.18-3.49-12.33-7.02-18.53-10.47-.2-.12-.4-.24-.57-.35-.16-.1-.3-.2-.43-.32-.03-.02-.06-.05-.1-.09-.13-.11-.24-.21-.34-.34-.02-.02-.05-.05-.08-.09-.11-.12-.19-.25-.27-.37-.01-.01-.02-.03-.03-.05-.08-.11-.14-.22-.18-.35-.02-.02-.03-.04-.03-.06-.02-.05-.04-.12-.06-.17-.01-.01-.02-.01-.01-.02-.04-.11-.09-.21-.11-.32h0c-.03-.14-.06-.28-.09-.42-.06-.32-.09-.66-.09-1.05.02-3.28.03-6.55.05-9.83.02-10.83,0-21.68-.05-32.52,0-.61.05-1.13.2-1.59.02-.09.05-.17.09-.26.03-.11.08-.2.13-.3.04-.09.09-.16.14-.24.04-.09.11-.17.16-.25.05-.06.11-.14.17-.2.07-.09.16-.17.25-.26.06-.06.14-.13.21-.19s.16-.13.24-.18c.09-.06.17-.12.27-.18.09-.05.18-.12.28-.17,4.3-2.5,8.57-5.05,12.95-7.67,1.24-.74,2.5-1.49,3.76-2.25,2.54,4.54,3.95,9.72,3.95,15.1Z" style="fill: none; stroke: #1d1d1b; stroke-miterlimit: 10; stroke-width: .5px;"/>
  <path d="M516.76,381.88v24.4s-.04.07-.08.11c-.03.06-.07.13-.13.18-.12.17-.26.33-.41.48-.1.09-.18.16-.27.24-.09.07-.18.14-.27.19-8.62,5.13-17.26,10.24-25.89,15.35-8.64,5.09-17.29,10.19-25.95,15.25-.12.06-.24.12-.38.17-.1.04-.19.07-.3.1-.12.03-.24.06-.35.07-.16.03-.31.04-.47.05-.19.02-.4.02-.58,0-.21-.02-.42-.06-.6-.13-.09-.02-.17-.06-.25-.11-6.45-3.78-12.8-7.71-19.76-11.93,19.07-11.21,37.9-22.25,56.95-33.44,6.21-3.65,12.45-7.31,18.72-10.99Z" style="fill: none; stroke: #1d1d1b; stroke-miterlimit: 10; stroke-width: .5px;"/>
  <path d="M514.2,416.95c.85-.49,1.7-1,2.56-1.49v114.32c0,4.13-.83,8.12-2.35,11.82-1.92-1.13-3.82-2.25-5.69-3.36-3.6-2.13-7.13-4.22-10.63-6.35-.88-.52-1.75-1.06-2.62-1.59-.79-.49-1.42-1.92-1.42-2.91-.03-20.14-.02-40.3.01-60.46.01-4.63.02-9.28.03-13.91.01-7.32.03-14.63.05-21.94,0-.52.1-1.17.3-1.73.19-.57.48-1.07.86-1.3,1.76-1.07,3.53-2.13,5.31-3.18,1.78-1.06,3.57-2.11,5.37-3.16.9-.52,1.8-1.05,2.71-1.57,1.81-1.06,3.65-2.12,5.49-3.18Z" style="fill: none; stroke: #1d1d1b; stroke-miterlimit: 10; stroke-width: .5px;"/>
  <path d="M433.98,458.77c.01,2.18-.73,3.41-2.6,4.45-10.31,5.71-20.59,11.48-30.83,17.32-1.78,1.02-3.17.92-4.88-.13-5.97-3.64-12-7.15-18.48-10.99.09-.14.17-.27.25-.42,7.96-4.67,15.47-9.05,22.99-13.44,2.84-1.65,5.66-3.37,8.57-4.94,1.55-.85,2.21-1.89,2.2-3.76-.09-13.91-.17-27.82-.03-41.73.04-2.82-1-4.31-3.33-5.62-9.29-5.26-18.51-10.66-27.75-16.03-.41-.24-.81-.5-1.23-.76-.4-.7-.8-1.44-1.21-2.14,5.62-3.19,11.12-6.17,16.41-9.47,2.58-1.65,4.42-1.48,6.97.09,10.02,6.17,20.2,12.12,30.38,18.05,1.75,1.01,2.48,2.13,2.48,4.21-.05,21.77-.03,43.54.08,65.31Z" style="fill: none; stroke: #1d1d1b; stroke-miterlimit: 10; stroke-width: .5px;"/>
  <path d="M389.82,362.87c0,.96-.37,2.39-1.05,2.81-4.92,2.95-9.89,5.84-15.04,8.8-1.93-2.76-4-5.38-6.23-7.89v-58.48c-16.79,10.17-33.2,20.1-49.73,30.12-3.47-.67-7-1.14-10.61-1.4-.89-1.28-1.65-2.59-2.1-3.99-1.1-3.41-.52-7.4-.49-11.11,0-.5,1.11-1.05,1.79-1.46,16.64-9.91,33.27-19.84,49.98-29.65.87-.51,2.54-.55,3.4-.05,9.44,5.44,18.8,10.97,28.08,16.63.97.59,1.89,2.11,1.9,3.21.13,17.49.13,34.96.1,52.45Z" style="fill: none; stroke: #1d1d1b; stroke-miterlimit: 10; stroke-width: .5px;"/>
  <path d="M297.72,324.01c-.09,6.47-.42,9.14-3.11,12.81-3.35.23-6.65.63-9.89,1.23-16.54-10.04-33.09-20.07-50.04-30.37v58.27c-2.37,2.62-4.57,5.36-6.59,8.23-5.01-2.89-9.83-5.7-14.6-8.57-.68-.42-1-1.86-1-2.85-.05-17.3-.05-34.61.09-51.88.02-1.09.94-2.6,1.92-3.19,9.45-5.79,19-11.45,28.56-17.04.8-.48,2.35-.54,3.13-.1,16.38,9.6,32.69,19.32,49.05,28.95,1.86,1.09,2.5,2.36,2.48,4.53Z" style="fill: none; stroke: #1d1d1b; stroke-miterlimit: 10; stroke-width: .5px;"/>
  <path d="M389.88,536.19c0,1.04-.83,2.49-1.72,3.05-9.98,6.26-20.03,12.42-30.12,18.49-.72.45-2.17.35-2.94-.09-16.51-9.56-32.97-19.19-49.43-28.85-.5-.29-1.25-.81-1.23-1.19.22-3.87-1.39-7.94,1.14-11.56.88-1.23,1.79-2.47,2.71-3.73,3.13-.26,6.21-.68,9.23-1.26,16.5,10.12,32.97,20.23,49.88,30.61v-58.92c2.13-2.39,4.13-4.9,5.98-7.5,4.83,2.84,9.66,5.66,14.42,8.61.95.6,1.92,2.06,1.94,3.14.16,16.41.2,32.79.14,49.19Z" style="fill: none; stroke: #1d1d1b; stroke-miterlimit: 10; stroke-width: .5px;"/>
  <path d="M297.48,527.11c-.14,1.09-2.16,2.13-3.49,2.91-15.37,9.12-30.79,18.16-46.13,27.32-1.7,1.01-2.85.98-4.53-.08-9.52-6.06-19.09-12.01-28.71-17.93-1.62-.99-2.28-2.1-2.27-4.06.05-16-.02-31.99.02-48,0-1.03.4-2.57,1.13-3.03,4.79-2.99,9.62-5.89,14.75-8.95,2.01,2.83,4.17,5.52,6.48,8.08v58.58c17.04-10.42,33.54-20.52,50.19-30.71,2.83.52,5.71.87,8.61,1.11,1.43,1.64,2.73,3.3,3.54,5.15,1.2,2.78.76,6.42.41,9.62Z" style="fill: none; stroke: #1d1d1b; stroke-miterlimit: 10; stroke-width: .5px;"/>
  <path d="M516.76,415.46v114.32c0,4.13-.83,8.12-2.35,11.82-1.92-1.13-3.82-2.25-5.69-3.36-3.6-2.13-7.13-4.22-10.63-6.35-.88-.52-1.75-1.06-2.62-1.59-.79-.49-1.42-1.92-1.42-2.91-.03-20.14-.02-40.3.01-60.46.01-4.63.02-9.28.03-13.91.01-7.32.03-14.63.05-21.94,0-.52.1-1.17.3-1.73.19-.57.48-1.07.86-1.3,1.76-1.07,3.53-2.13,5.31-3.18,1.78-1.06,3.57-2.11,5.37-3.16.9-.52,1.8-1.05,2.71-1.57,1.81-1.06,3.65-2.12,5.49-3.18.85-.49,1.7-1,2.56-1.49Z" style="fill: none; stroke: #1d1d1b; stroke-miterlimit: 10; stroke-width: .5px;"/>
  <path d="M224.2,380.19c-.64,1.05-1.22,2.12-1.82,3.2-9.41,5.44-18.55,10.77-27.79,15.91-2.41,1.33-3.02,2.85-3.01,5.39.13,22.04.12,44.08.16,66.15v3.72c-5.72-3.18-10.83-6.52-16.35-8.94-5.71-2.49-7.06-6.22-6.94-12.19.4-19.64.13-39.32,0-58.97-.02-2.28.66-3.59,2.64-4.76,10.57-6.23,21.09-12.56,31.56-18.98,1.81-1.11,3.14-.95,4.87.06,5.43,3.16,10.95,6.2,16.7,9.42Z" style="fill: none; stroke: #1d1d1b; stroke-miterlimit: 10; stroke-width: .5px;"/>
  <path d="M432.45,596.24s.06-.01.11-.02c.17-.04.33-.1.49-.16.15-.05.3-.13.43-.2,6.37-3.69,12.73-7.39,19.1-11.09,6.36-3.7,12.72-7.41,19.08-11.11" style="fill: none; stroke: #1d1d1b; stroke-miterlimit: 10; stroke-width: .5px;"/>
  <path d="M193.12,584.16c-.88.51-1.76,1.02-2.63,1.52-5.69,3.26-11.18,6.44-16.73,9.48-.43.22-.86.46-1.29.7-.06.03-.12.06-.19.09-.13.04-.28.07-.44.1-.87.07-2.06-.28-2.82-.72-17.05-9.83-34.05-19.71-51.04-29.63-7.36-4.29-14.68-8.66-22-13.02-1.58-1.42-2.99-3.01-4.22-4.71,2.42-1.44,4.82-2.88,7.19-4.29,1.96-1.17,3.9-2.32,5.84-3.46,2.92-1.72,5.82-3.41,8.75-5.07.12-.06.26-.11.41-.14.34-.07.75-.05,1.19.02.12.02.24.04.36.07.24.06.48.14.72.22.12.04.23.09.33.14.14.06.27.14.39.2.08.03.14.07.2.12,1.03.69,2.06,1.37,3.08,2.07,1.03.7,2.05,1.38,3.08,2.08,2.04,1.39,4.07,2.78,6.12,4.17,1.36.92,2.72,1.85,4.09,2.78,2.72,1.85,5.45,3.7,8.19,5.53,2.74,1.83,5.5,3.63,8.28,5.41,1.62,1.03,3.24,2.06,4.87,3.07,1.63,1.02,3.26,2.03,4.9,3.04,2.46,1.51,4.91,3.02,7.38,4.51,2.47,1.5,4.93,2.99,7.4,4.47,2.64,1.59,5.29,3.19,7.92,4.78,2.29,1.38,4.59,2.77,6.88,4.16.2.13.41.25.62.37s.43.26.65.4c.73.44,1.53.92,2.51,1.52Z" style="fill: none; stroke: #1d1d1b; stroke-miterlimit: 10; stroke-width: .5px;"/>
  <path d="M297.64,246.94c.04,2.04-.63,3.18-2.41,4.23-23.94,14.03-47.82,28.14-71.72,42.24-2.21,1.3-4.42,2.58-7.05,4.11.01-8.68-.02-16.88.05-25.08.01-.61.62-1.45,1.19-1.79,26.27-15.95,52.57-31.84,78.86-47.75.16-.1.38-.1,1.03-.25v5.51c0,6.26-.08,12.52.05,18.77Z" style="fill: none; stroke: #1d1d1b; stroke-miterlimit: 10; stroke-width: .5px;"/>
  <path d="M386.05,297.2c-3-1.7-5.59-3.13-8.13-4.61-23.33-13.71-46.65-27.48-70.03-41.11-2.34-1.37-3.31-2.85-3.23-5.61.23-6.74.06-13.51.05-20.27v-3.45c3.92,2.34,7.33,4.37,10.73,6.41,22.86,13.73,45.72,27.47,68.55,41.25.83.49,1.95,1.44,1.96,2.2.14,8.21.09,16.43.09,25.19Z" style="fill: none; stroke: #1d1d1b; stroke-miterlimit: 10; stroke-width: .5px;"/>
  <path d="M386.2,573.81c-.02.94-1.27,2.15-2.24,2.74-11.32,6.93-22.71,13.78-34.08,20.6-14.12,8.49-28.25,16.94-42.39,25.41-.81.49-1.67.92-2.93,1.62,0-6.03.47-11.7-.13-17.27-.65-6.1,1.83-9.31,6.99-12.35,23.81-14.04,47.38-28.53,71.03-42.84,1.01-.61,2.08-1.12,3.85-2.09,0,8.49.09,16.33-.1,24.17Z" style="fill: none; stroke: #1d1d1b; stroke-miterlimit: 10; stroke-width: .5px;"/>
  <path d="M297.58,624.07c-4.33-2.58-8.26-4.87-12.15-7.23-22.05-13.34-44.08-26.71-66.17-39.97-2.04-1.22-2.92-2.45-2.86-4.88.18-7.33.08-14.66.08-22.6,13.12,7.92,25.69,15.49,38.24,23.08,13.42,8.11,26.82,16.27,40.27,24.32,1.93,1.15,2.72,2.38,2.67,4.7-.18,7.32-.07,14.64-.07,22.57Z" style="fill: none; stroke: #1d1d1b; stroke-miterlimit: 10; stroke-width: .5px;"/>
  <path d="M508.47,296.07c-3.92,2.3-7.73,4.54-11.49,6.71-.99.58-1.98,1.15-2.97,1.71-.99.57-1.97,1.13-2.96,1.69-.53.3-1.34.45-2.04.39h-.05c-.1-.01-.19-.02-.28-.04-.2-.04-.39-.11-.55-.19-25.61-14.55-51.17-29.18-76.75-43.81-.05-.03-.04-.17-.14-.57,3.41-2.06,6.82-4.12,10.26-6.19,1.58-.94,3.15-1.88,4.73-2.82,1.67-1,3.36-1.98,5.05-2.95l69.97,40.33c2.71,1.56,5.14,3.5,7.22,5.74Z" style="fill: none; stroke: #1d1d1b; stroke-miterlimit: 10; stroke-width: .5px;"/>
  <path d="M192.4,262.03c-1.21.67-2.42,1.35-3.61,2.02-1.31.73-2.62,1.46-3.9,2.18-1.07.6-2.13,1.19-3.18,1.79-1.17.65-2.34,1.32-3.51,1.97-21.11,11.93-42.22,23.86-63.29,35.86-1.02.58-1.84.83-2.72.69-.17-.02-.33-.06-.5-.12-.16-.05-.33-.13-.51-.21-.18-.09-.35-.18-.55-.3-.8-.49-1.61-1-2.41-1.49-.81-.49-1.62-.97-2.43-1.47-.82-.49-1.63-.98-2.46-1.48-1.13-.67-2.25-1.35-3.4-2.03-1.05-.61-2.1-1.24-3.16-1.87-.86-.5-1.73-1.02-2.59-1.53,2.07-2.22,4.48-4.15,7.18-5.71l70.15-40.43c.49.17,1,.42,1.53.75,6.28,3.85,12.71,7.49,19.36,11.37,0,.01.01.01.01.01Z" style="fill: none; stroke: #1d1d1b; stroke-miterlimit: 10; stroke-width: .5px;"/>
  <path d="M162.12,426.08c-3.18,1.91-5.96,3.6-8.77,5.27-3.69,2.19-7.44,4.28-11.05,6.58-.69.43-1.27.63-1.84.63-.31,0-.61-.05-.92-.16-.31-.11-.64-.28-1-.48-3.31-1.96-6.64-3.92-9.95-5.88-13.87-8.18-27.76-16.33-41.62-24.53-.19-.11-.39-.26-.58-.42-.1-.09-.19-.18-.29-.28-.1-.1-.18-.19-.26-.3v-24.78c25.57,14.86,50.7,29.47,76.28,44.35Z" style="fill: none; stroke: #1d1d1b; stroke-miterlimit: 10; stroke-width: .5px;"/>
  <path d="M200.64,353.61c-.01.89-.63,2.15-1.37,2.58-6.37,3.71-12.83,7.29-19.44,10.99-.48-.72-.96-1.33-1.32-2-4.92-9.32-9.85-18.64-14.68-28-.45-.88-.61-2.34-.18-3.17,5.28-10.15,10.67-20.22,16.04-30.31.24-.43.5-.83.89-1.47,6.37,3.79,12.5,7.35,18.51,11.11.87.55,1.66,1.98,1.67,3.02.06,12.42.01,24.83-.12,37.25Z" style="fill: none; stroke: #1d1d1b; stroke-miterlimit: 10; stroke-width: .5px;"/>
  <path d="M478.35,352.89c-.01.93-.51,2.3-1.24,2.72-6.53,3.82-13.17,7.46-20.07,11.32-2.07-3.76-4.05-7.29-5.97-10.85-3.35-6.22-6.72-12.42-9.94-18.7-.5-.97-.72-2.58-.26-3.47,5.35-10.09,10.86-20.11,16.43-30.33,6.77,3.95,13.25,7.7,19.65,11.57.75.45,1.44,1.69,1.44,2.57.09,11.72.06,23.45-.03,35.17Z" style="fill: none; stroke: #1d1d1b; stroke-miterlimit: 10; stroke-width: .5px;"/>
  <path d="M159.55,340.06c-4.52,7.72-8.58,15.7-12.83,23.57-.65,1.21-1.37,2.4-2.06,3.6-6.57-3.77-13.01-7.37-19.31-11.19-.9-.54-1.73-2.01-1.74-3.07-.15-11.82-.16-23.63-.13-35.45,0-.75.49-1.82,1.09-2.18,6.58-3.94,13.23-7.77,20.04-11.74,3.37,6.3,6.68,12.52,9.99,18.74,1.6,2.99,2.9,6.17,4.84,8.91,2.18,3.09,2.01,5.59.11,8.82Z" style="fill: none; stroke: #1d1d1b; stroke-miterlimit: 10; stroke-width: .5px;"/>
  <path d="M438.57,336.52c-5.46,10.25-11,20.48-16.68,30.99-6.52-3.79-12.91-7.44-19.2-11.24-.63-.37-.98-1.66-.99-2.53-.05-12.52-.09-25.05.05-37.57.01-1.09.94-2.59,1.9-3.17,5.71-3.47,11.57-6.72,17.65-10.21,5.78,10.61,11.5,21.08,17.15,31.58.32.59.42,1.59.12,2.15Z" style="fill: none; stroke: #1d1d1b; stroke-miterlimit: 10; stroke-width: .5px;"/>
  <path d="M509.52,377.8c-22.82,13.34-45.28,26.48-68.44,40.01,0-8.49-.04-16.32.07-24.15.01-.74.9-1.71,1.65-2.16,14.24-8.46,28.52-16.86,42.83-25.2.76-.45,2.18-.55,2.92-.14,6.85,3.69,13.62,7.54,20.96,11.64Z" style="fill: none; stroke: #1d1d1b; stroke-miterlimit: 10; stroke-width: .5px;"/>
  <path d="M161.3,417.39c-22.89-13.38-45.19-26.41-67.79-39.61.85-.61,1.34-1.03,1.9-1.35,5.22-2.94,10.57-5.67,15.62-8.88,3-1.92,5.3-1.91,8.35-.09,12.87,7.67,25.86,15.14,38.87,22.55,2.24,1.28,3.22,2.69,3.13,5.38-.23,7.14-.08,14.29-.08,22Z" style="fill: none; stroke: #1d1d1b; stroke-miterlimit: 10; stroke-width: .5px;"/>
  <path d="M516.76,317.13v56.31c-.71-.3-1.32-.54-1.89-.85-6.18-3.49-12.33-7.02-18.53-10.47-.2-.12-.4-.24-.57-.35-.16-.1-.3-.2-.43-.32-.03-.02-.06-.05-.1-.09-.13-.11-.24-.21-.34-.34-.02-.02-.05-.05-.08-.09-.11-.12-.19-.25-.27-.37-.01-.01-.02-.03-.03-.05-.08-.11-.14-.22-.18-.35-.02-.02-.03-.04-.03-.06-.02-.05-.04-.12-.06-.17-.01-.01-.02-.01-.01-.02-.04-.11-.09-.21-.11-.32h0c-.03-.14-.06-.28-.09-.42-.06-.32-.09-.66-.09-1.05.02-3.28.03-6.55.05-9.83.02-10.83,0-21.68-.05-32.52,0-.61.05-1.13.2-1.59.02-.09.05-.17.09-.26.03-.11.08-.2.13-.3.04-.09.09-.16.14-.24.04-.09.11-.17.16-.25.05-.06.11-.14.17-.2.07-.09.16-.17.25-.26.06-.06.14-.13.21-.19s.16-.13.24-.18c.09-.06.17-.12.27-.18.09-.05.18-.12.28-.17,4.3-2.5,8.57-5.05,12.95-7.67,1.24-.74,2.5-1.49,3.76-2.25,2.54,4.54,3.95,9.72,3.95,15.1Z" style="fill: none; stroke: #1d1d1b; stroke-miterlimit: 10; stroke-width: .5px;"/>
  <path d="M108.34,336.56c0,3.9,0,7.8-.01,11.71-.01,3.51-.02,7.02-.03,10.54,0,.11-.01.22-.02.34-.08.83-.41,1.85-.95,2.17-5.34,3.11-10.73,6.15-16.3,9.28-1.72.95-3.44,1.93-5.19,2.91v-56.39c0-5.37,1.39-10.53,3.92-15.07,2.27,1.36,4.47,2.67,6.67,3.98,1.25.75,2.51,1.49,3.77,2.22.42.25.84.49,1.25.75.42.25.84.49,1.25.75.73.44,1.45.88,2.17,1.35.51.32,1.02.65,1.52,1,.94.63,1.84,2.11,1.85,3.21.03,3.74.05,7.47.06,11.21.01,3.34.02,6.69.02,10.04Z" style="fill: none; stroke: #1d1d1b; stroke-miterlimit: 10; stroke-width: .5px;"/>
  <path d="M161.1,505.9c-1.1,17.09-20.85,29.42-37.37,25.9-2.93-.62-3.89-1.64-3.81-4.56.19-6.73.06-13.49.06-20.65,1.22,0,2.48.09,3.72-.02,3.67-.33,7.53-.12,10.94-1.24,7.37-2.45,11.45-8.12,11.77-15.71.3-7.24,4.28-11.69,9.79-15.37,1.54-1.04,3.31-1.76,5.03-2.64,0,11.69.59,23.03-.14,34.29Z" style="fill: none; stroke: #1d1d1b; stroke-miterlimit: 10; stroke-width: .5px;"/>
  <path d="M481.44,506.73v24.18c-7.47,2.41-14.87,1.93-22.02-1.39-12.16-5.66-18.93-14.85-18.75-28.58.12-9.62.02-19.26.02-29.32,5.44,2.52,10.16,5.18,12.84,10.1,1.2,2.18,2.03,4.81,2.16,7.28.51,10.39,7.87,17.65,18.38,17.71,2.39.02,4.78.01,7.38.01Z" style="fill: none; stroke: #1d1d1b; stroke-miterlimit: 10; stroke-width: .5px;"/>
  <path d="M200.69,529.79c-.02.91-.51,2.22-1.22,2.64-9.98,6.04-20.05,11.96-30.1,17.9-.15.09-.39.03-.81.05v-46.2h32.15v12.2c.01,4.46.1,8.94-.02,13.4Z" style="fill: none; stroke: #1d1d1b; stroke-miterlimit: 10; stroke-width: .5px;"/>
  <path d="M433.88,504.18v46.14c-1.09-.55-2.12-1-3.08-1.56-8.96-5.27-17.89-10.58-26.89-15.79-1.58-.91-2.17-1.94-2.14-3.77.11-8.23.04-16.47.04-25.03h32.07Z" style="fill: none; stroke: #1d1d1b; stroke-miterlimit: 10; stroke-width: .5px;"/>
  <path d="M364.82,212.01c-2.66,1.54-5.33,3.07-7.99,4.6-5.33,3.07-10.65,6.14-15.99,9.22-2.66,1.54-5.34,3.08-8.01,4.62-9.16-5.56-18.28-11.1-27.79-16.87,6.12-3.67,11.92-7.15,17.71-10.62,3.95-2.35,7.86-4.76,11.87-7.01.53-.3,1.32-.51,1.99-.51h.01l27.87,16.07h.01s.03.06.05.1c.06.11.15.25.26.41Z" style="fill: none; stroke: #1d1d1b; stroke-miterlimit: 10; stroke-width: .5px;"/>
  <path d="M362.92,636.32l-27.12,15.63c-.14-.03-.28-.06-.44-.12-.06-.02-.14-.04-.2-.07-.03-.01-.08-.02-.11-.04-.14-.05-.28-.12-.42-.19-.17-.09-.34-.18-.51-.29-9.08-5.62-18.26-11.06-27.42-16.56-.65-.4-1.29-.81-2.34-1.48,8.78-5.23,17.08-10.21,25.43-15.09.76-.44,2.18-.63,2.85-.24,9.85,5.88,19.63,11.88,29.43,17.85.27.16.51.35.84.6Z" style="fill: none; stroke: #1d1d1b; stroke-miterlimit: 10; stroke-width: .5px;"/>
  <path d="M298.23,633.34c-.34.21-.68.41-1.01.61-2.35,1.39-4.5,2.68-6.65,3.95-7.47,4.44-14.92,8.89-22.43,13.28-.14.07-.3.16-.47.25h-.01c-.17.07-.34.15-.54.21-.18.06-.38.12-.56.16h-.02l-27.1-15.62s.04-.04.08-.07c.54-.44.9-.77,1.32-1.02,9.21-5.61,18.46-11.15,27.63-16.84.11-.06.2-.13.3-.18.2-.11.4-.2.58-.29.28-.13.55-.21.81-.26.8-.16,1.59.03,2.57.63,7.52,4.56,15.13,8.94,22.71,13.4.53.3,1.03.63,1.62,1.02.24.15.48.31.75.49.13.07.27.17.42.27Z" style="fill: none; stroke: #1d1d1b; stroke-miterlimit: 10; stroke-width: .5px;"/>
  <path d="M297.33,213.84c-8.86,5.29-17.57,10.51-26.33,15.66-.55.33-1.61.37-2.14.05-9.9-5.8-19.75-11.69-29.6-17.56-.23-.13-.33-.44-.6-.8,0-.01-.01-.03-.02-.04,4.48-2.57,8.94-5.14,13.4-7.69.77-.45,1.55-.89,2.34-1.34,3.68-2.1,7.37-4.19,11.06-6.24.66-.36,2.08.06,2.88.55,9.62,5.71,19.17,11.49,29.01,17.42Z" style="fill: none; stroke: #1d1d1b; stroke-miterlimit: 10; stroke-width: .5px;"/>
  <path d="M115.47,484.8v-12.19c0-3.97-.13-7.95.09-11.91.06-1.13.84-2.67,1.78-3.24,6.04-3.7,12.18-7.24,18.37-10.71.79-.44,2.22-.6,2.96-.19,7.48,4.17,14.88,8.5,22.7,13.01-15.31,8.42-30.32,16.69-45.89,25.25Z" style="fill: none; stroke: #1d1d1b; stroke-miterlimit: 10; stroke-width: .5px;"/>
  <path d="M486.71,484.51c-15.44-8.49-30.2-16.59-45.46-24.97,8.14-4.56,15.81-8.89,23.56-13.12.59-.32,1.78-.07,2.44.31,6.08,3.47,12.12,6.99,18.11,10.59.63.39,1.29,1.36,1.3,2.07.09,8.12.05,16.26.05,25.13Z" style="fill: none; stroke: #1d1d1b; stroke-miterlimit: 10; stroke-width: .5px;"/>
  <path d="M274.15,656.19l-.16.1c3.53,2.04,7.05,3.93,10.49,5.87.29.16.57.32.86.48" style="fill: none; stroke: #1d1d1b; stroke-miterlimit: 10; stroke-width: .5px;"/>
  <path d="M328.21,191.03c-4.49,2.68-9,5.36-13.52,8.06s-9.07,5.42-13.67,8.16c0,.01-.01.01-.01.01-2.21-1.31-4.44-2.62-6.67-3.95-3.35-1.98-6.71-3.97-10.12-5.97-1.84-1.09-3.7-2.18-5.56-3.3-1.57-.92-3.15-1.85-4.74-2.79,3.42-2,6.78-3.96,10.09-5.9,1.72-1.01,3.42-2,5.11-3,.49-.28.98-.57,1.47-.85-.47.28-.94.55-1.43.83,8.9-3.79,19.14-3.23,27.64,1.67.01,0,.02.01.03.02,3.68,2.14,7.35,4.29,11.03,6.44.15.09.2.32.34.56Z" style="fill: none; stroke: #1d1d1b; stroke-miterlimit: 10; stroke-width: .5px;"/>
  <path d="M274.42,340.56c-8.41,2.6-16.29,6.4-23.41,11.2-2.31-1.38-4.64-2.77-6.94-4.18-.81-.5-1.89-1.51-1.9-2.32-.16-7.91-.1-15.84-.1-24.44,10.95,6.68,21.58,13.16,32.35,19.74Z" style="fill: none; stroke: #1d1d1b; stroke-miterlimit: 10; stroke-width: .5px;"/>
  <path d="M360.12,345.28c0,.67-.81,1.56-1.47,1.95-2.59,1.59-5.2,3.14-7.8,4.7-6.96-4.74-14.64-8.51-22.84-11.11,10.56-6.39,21.23-12.85,32.18-19.46,0,8.33.03,16.13-.07,23.92Z" style="fill: none; stroke: #1d1d1b; stroke-miterlimit: 10; stroke-width: .5px;"/>
  <path d="M274.66,508.75c-10.83,6.62-21.65,13.2-32.75,19.97,0-7.87-.05-15.09.06-22.29,0-.69.76-1.62,1.42-2.02,3.16-1.91,6.34-3.82,9.51-5.69,6.68,4.26,14,7.66,21.76,10.03Z" style="fill: none; stroke: #1d1d1b; stroke-miterlimit: 10; stroke-width: .5px;"/>
  <path d="M360.2,528.47c-11.12-6.75-21.92-13.32-32.7-19.89,7.6-2.39,14.76-5.75,21.32-9.94,3.27,1.96,6.52,3.93,9.76,5.93.7.46,1.53,1.44,1.54,2.19.13,7.01.08,14.02.08,21.71Z" style="fill: none; stroke: #1d1d1b; stroke-miterlimit: 10; stroke-width: .5px;"/>
  <path d="M429.27,281.67c-12.08,6.99-23.72,13.71-36.03,20.83,0-10.46-.01-19.96.04-29.47,0-.59.39-1.42.86-1.71,2.54-1.58,5.13-3.1,7.77-4.48.53-.27,1.55-.02,2.16.32,8.21,4.68,16.39,9.43,25.2,14.51Z" style="fill: none; stroke: #1d1d1b; stroke-miterlimit: 10; stroke-width: .5px;"/>
  <path d="M209.43,279.64c-.64,7.27-.15,14.64-.15,22.61-12.12-7.06-23.62-13.75-35.65-20.77,2.2-1.28,3.78-2.22,5.39-3.15,6.38-3.69,12.73-7.46,19.19-11.01.96-.54,2.58-.35,3.74.01,6.09,1.91,8.04,5.96,7.47,12.31Z" style="fill: none; stroke: #1d1d1b; stroke-miterlimit: 10; stroke-width: .5px;"/>
  <path d="M403.32,443.03c-.03.91-.49,2.24-1.18,2.64-6.16,3.59-12.34,7.13-18.54,10.65,3.53-9.07,5.59-18.86,5.89-29.08,4.48-2.5,9.01-5.11,13.87-7.84v11.11c0,4.17.08,8.35-.04,12.53Z" style="fill: none; stroke: #1d1d1b; stroke-miterlimit: 10; stroke-width: .5px;"/>
  <path d="M428.62,564.56c-9.04,5.29-17.8,10.43-26.47,15.51-.24-.06-.33-.07-.42-.13q-8.49-4.72-8.49-14.43c0-6.66.02-13.3.05-19.95,0-.16.17-.32.5-.9,11.47,6.55,22.94,13.1,34.82,19.9Z" style="fill: none; stroke: #1d1d1b; stroke-miterlimit: 10; stroke-width: .5px;"/>
  <path d="M217.14,395.24c-3.19,8.94-4.96,18.56-5.05,28.55-4.01,1.98-7.79,4.46-11.71,6.67-.26.14-.55.2-1.28.47v-10.71c0-4.26-.05-8.55.08-12.81.03-.88.6-2.17,1.31-2.6,5.56-3.23,11.11-6.41,16.65-9.58Z" style="fill: none; stroke: #1d1d1b; stroke-miterlimit: 10; stroke-width: .5px;"/>
  <path d="M385.92,584.05c0,13.09,0,25.67-.01,39l-.75.44h-.01c-11.04-6.64-21.55-12.94-32.44-19.48,0-.01-.01-.01-.01-.01,2.8-1.68,5.58-3.35,8.34-5.01,2.08-1.25,4.15-2.49,6.22-3.74.69-.41,1.37-.82,2.06-1.23,2.41-1.46,4.81-2.9,7.24-4.36,3.11-1.86,6.22-3.74,9.37-5.62Z" style="fill: none; stroke: #1d1d1b; stroke-miterlimit: 10; stroke-width: .5px;"/>
  <path d="M209.36,572.44c.02,1.95-.6,3.04-2.26,4.04-6.33,3.81-6.29,3.86-12.54.12-6.57-3.94-13.16-7.86-20.1-12.01,11.72-6.8,22.92-13.29,34.65-20.1.1,1.39.21,2.3.21,3.21.01,8.25-.08,16.49.04,24.75Z" style="fill: none; stroke: #1d1d1b; stroke-miterlimit: 10; stroke-width: .5px;"/>
  <path d="M249.8,603.76c-11.15,6.61-21.73,12.54-32.87,19.16,0-13.23-.19-25.64-.19-38.96,11,6.58,21.81,13.06,33.07,19.8Z" style="fill: none; stroke: #1d1d1b; stroke-miterlimit: 10; stroke-width: .5px;"/>
  <path d="M248.78,243.73c-10.82,6.4-21.29,12.6-32.22,19.06,0-13.05.01-25.4.01-38.35,10.75,6.43,21.26,12.73,32.21,19.29Z" style="fill: none; stroke: #1d1d1b; stroke-miterlimit: 10; stroke-width: .5px;"/>
  <path d="M385.74,224.86v37.28c-10.69-6.26-21.05-12.33-31.7-18.57,10.69-6.3,21.03-12.41,31.7-18.71Z" style="fill: none; stroke: #1d1d1b; stroke-miterlimit: 10; stroke-width: .5px;"/>
  <path d="M335.98,276.74c-10.6,6.27-20.77,12.29-31.21,18.46v-37c10.55,6.26,20.62,12.25,31.21,18.54Z" style="fill: none; stroke: #1d1d1b; stroke-miterlimit: 10; stroke-width: .5px;"/>
  <path d="M297.4,258.43v36.8c-10.27-6.21-20.15-12.18-30.43-18.39,10.35-6.26,20.21-12.22,30.43-18.41Z" style="fill: none; stroke: #1d1d1b; stroke-miterlimit: 10; stroke-width: .5px;"/>
  <path d="M297.42,553v36.7c-9.65-5.82-18.93-11.43-28.98-17.5,9.86-6.54,19.2-12.72,28.98-19.2Z" style="fill: none; stroke: #1d1d1b; stroke-miterlimit: 10; stroke-width: .5px;"/>
  <path d="M334.12,572.55c-9.95,5.88-19.49,11.52-29.38,17.36v-36.26c9.94,6.39,19.45,12.51,29.38,18.9Z" style="fill: none; stroke: #1d1d1b; stroke-miterlimit: 10; stroke-width: .5px;"/>
  <path d="M377.95,627.65l-7.67,4.42c-1.03-.61-2.06-1.23-3.08-1.84-9.67-5.81-19.32-11.61-29.27-17.59,2.06-1.36,3.62-2.45,5.18-3.4.23-.14.45-.27.68-.4.09-.05.18-.1.29-.14.31-.12.71-.2,1.07-.2.09,0,.17.01.26.02.1.01.18.02.26.05.07.02.14.05.2.09,2.05,1.2,4.1,2.41,6.14,3.62,1.22.72,2.44,1.43,3.67,2.15,1.97,1.18,3.95,2.33,5.92,3.51,5.36,3.17,10.79,6.39,16.35,9.71Z" style="fill: none; stroke: #1d1d1b; stroke-miterlimit: 10; stroke-width: .5px;"/>
  <path d="M264.37,612.44c-1.38.86-2.72,1.67-4.03,2.47-1.76,1.06-3.45,2.1-5.15,3.13-.42.25-.85.5-1.27.76-1.68,1.01-3.38,2.01-5.07,3.02-5.08,3.02-10.18,6.04-15.2,9.15-.63.4-1.21.7-1.78.85h-.01l-7.48-4.31c6.98-4.21,13.52-8.15,20.05-12.07,3.42-2.06,6.92-3.99,10.28-6.13,1.72-1.1,3.12-1.34,4.81.06.17.14.34.28.51.41.35.27.72.51,1.12.75.58.36,1.2.73,1.87,1.11.43.26.88.51,1.35.81Z" style="fill: none; stroke: #1d1d1b; stroke-miterlimit: 10; stroke-width: .5px;"/>
  <path d="M262.89,235.1c-1.85,1.22-3.7,2.56-5.68,3.64-.6.33-1.77.21-2.4-.16-10.25-5.99-20.45-12.06-31.23-18.46,2.53-1.41,4.46-2.58,6.48-3.56.49-.24,1.39-.11,1.91.18,10.27,5.95,20.52,11.96,30.77,17.95.06.03.07.17.16.42Z" style="fill: none; stroke: #1d1d1b; stroke-miterlimit: 10; stroke-width: .5px;"/>
  <path d="M378.7,220.19c-10.69,6.23-20.83,12.16-31.02,18.01-.6.34-1.72.3-2.36-.02-1.68-.85-3.24-1.95-5.15-3.14,6.36-3.67,12.45-7.18,18.54-10.7,3.54-2.04,7.18-3.94,10.56-6.22,2.33-1.56,4.22-1.71,6.35.11.73.63,1.63,1.06,3.08,1.96Z" style="fill: none; stroke: #1d1d1b; stroke-miterlimit: 10; stroke-width: .5px;"/>
  <path d="M422.77,600.64c-3.51,3.48-5.2,3.71-9.11,1.44-5.53-3.21-11.04-6.44-16.61-9.6-4.07-2.32-4.11-2.27-3.2-7.91,9.75,5.42,19.31,10.73,28.92,16.07Z" style="fill: none; stroke: #1d1d1b; stroke-miterlimit: 10; stroke-width: .5px;"/>
  <path d="M423.81,245.7c-7.48,4.24-14.9,8.46-22.38,12.68-2.52,1.43-5.05,2.87-7.59,4.3h0c-.14-.5-.25-.97-.31-1.41-.08-.44-.11-.86-.11-1.24,0-.21.01-.42.03-.61s.05-.37.1-.56c.04-.19.1-.39.17-.58.05-.13.11-.26.17-.37.18-.37.44-.72.76-1.05l.19-.19c.05-.05.11-.1.16-.14.04-.05.11-.1.16-.14.12-.1.24-.19.36-.28.13-.09.26-.17.4-.26.14-.09.29-.17.44-.26.1-.06.19-.12.3-.17.76-.4,1.52-.79,2.28-1.2,1.51-.81,3.01-1.65,4.51-2.5,1.49-.85,2.97-1.72,4.45-2.6,1.48-.89,2.95-1.79,4.41-2.7.73-.46,1.45-.92,2.18-1.38.21-.14.42-.27.63-.39.42-.25.83-.47,1.23-.65.19-.09.39-.17.57-.24.19-.09.38-.15.57-.2.11-.03.2-.06.3-.09.15-.05.31-.09.47-.11.25-.04.49-.07.73-.1.12-.01.21-.01.32-.01.06,0,.13-.01.2-.01h.01s.01.01.01.01t.02,0s.01-.01.02,0l4.21,2.43Z" style="fill: none; stroke: #1d1d1b; stroke-miterlimit: 10; stroke-width: .5px;"/>
  <path d="M204.98,592.91c-5.44,2.7-10.55,6.05-15.8,9.12-3.91,2.29-4.77,2.2-9.02-1.1,9.52-5.45,18.91-10.8,28.51-16.28,1.3,4.34-.15,6.5-3.69,8.26Z" style="fill: none; stroke: #1d1d1b; stroke-miterlimit: 10; stroke-width: .5px;"/>
  <path d="M208.9,262.36c-9.79-5.61-19.43-11.14-29.32-16.83.4-.36.78-.69,1.16-.96.01-.01.03-.02.04-.03.51-.37,1.02-.67,1.51-.88.03-.02.06-.03.09-.04,1.7-.71,3.4-.45,5.47.86,6.22,3.96,12.77,7.4,19.18,11.08,2.28,1.32,2.27,1.34,1.88,6.81Z" style="fill: none; stroke: #1d1d1b; stroke-miterlimit: 10; stroke-width: .5px;"/>
  <path d="M455.29,443.05c-4.75,2.73-9.17,5.24-13.92,7.97v-15.93c4.67,2.68,9.13,5.22,13.92,7.95Z" style="fill: none; stroke: #1d1d1b; stroke-miterlimit: 10; stroke-width: .5px;"/>
  <path d="M161.22,435.11v15.58c-4.48-2.63-8.61-5.05-13.19-7.74,4.58-2.72,8.71-5.18,13.19-7.85Z" style="fill: none; stroke: #1d1d1b; stroke-miterlimit: 10; stroke-width: .5px;"/>
  <path d="M389.53,424.62c0,.87,0,1.74-.04,2.61-.3,10.22-2.35,20.01-5.89,29.08-1.71,4.4-3.77,8.66-6.16,12.69-.08.15-.16.28-.25.42-1.2,1.99-2.45,3.95-3.8,5.83-1.85,2.61-3.84,5.12-5.98,7.5-5.42,6.12-11.67,11.47-18.6,15.89-6.56,4.19-13.72,7.55-21.32,9.94-3.25,1.01-6.55,1.84-9.96,2.48-3.03.57-6.11,1-9.23,1.26-2.48.22-4.97.31-7.5.31s-4.87-.09-7.27-.29c-2.9-.24-5.78-.59-8.61-1.11-3.5-.63-6.92-1.46-10.27-2.48-7.75-2.37-15.07-5.77-21.76-10.03-6.73-4.28-12.84-9.46-18.17-15.36-2.31-2.56-4.48-5.25-6.48-8.08-10.2-14.32-16.18-31.8-16.18-50.68,0-.28,0-.56,0-.82.09-9.99,1.87-19.61,5.05-28.55,1.46-4.09,3.22-8.05,5.24-11.85.6-1.08,1.18-2.15,1.82-3.2,1.2-2.06,2.51-4.06,3.89-6.02,2.03-2.86,4.22-5.61,6.59-8.23,4.83-5.35,10.31-10.13,16.32-14.19,7.12-4.8,15-8.6,23.41-11.2h.02c3.33-1.04,6.78-1.87,10.28-2.51,3.24-.59,6.54-1,9.89-1.23,2.05-.14,4.11-.22,6.2-.22s4.27.09,6.36.23c3.6.26,7.14.72,10.61,1.4,3.5.65,6.9,1.53,10.23,2.6,8.2,2.61,15.88,6.37,22.84,11.11,6.16,4.17,11.77,9.11,16.66,14.65,2.22,2.51,4.3,5.13,6.23,7.89,1.39,1.96,2.69,4,3.92,6.1.41.7.81,1.44,1.21,2.14,6.79,12.46,10.67,26.73,10.66,41.9Z" style="fill: none; stroke: #1d1d1b; stroke-miterlimit: 10; stroke-width: .5px;"/>
</svg>