<?xml version="1.0" encoding="UTF-8"?>
<svg id="Calque_1" data-name="Calque 1" xmlns="http://www.w3.org/2000/svg" viewBox="0 0 595.28 841.89">
  <g>
    <path d="M215.44,421.49c-.01.27-.01.54-.01.82,0,18.87,5.98,36.35,16.17,50.68,2.01,2.82,4.18,5.52,6.49,8.07.04.04.07.08.11.12v26.05l-88.77-51.69v-72.5l88.77-51.26v31.7c-.06.06-.11.11-.16.17-2.37,2.61-4.57,5.36-6.59,8.22-1.38,1.96-2.69,3.96-3.9,6.02-.63,1.05-1.22,2.12-1.81,3.2-2.03,3.8-3.79,7.75-5.25,11.85-3.18,8.94-4.96,18.56-5.05,28.55Z" style="fill: none; stroke: #1d1d1b; stroke-miterlimit: 10; stroke-width: .5px;"/>
    <path d="M238.2,507.23v75.93l-.66.39c-20.52-26.59-52.25-44.07-88.1-45.4-1.47-.07-2.96-.1-4.44-.1-17.5,0-34.08,3.85-48.99,10.74-5.62-7.05-8.8-15.89-8.8-25.19v-104.31l62.23,36.24,88.76,51.69Z" style="fill: none; stroke: #1d1d1b; stroke-miterlimit: 10; stroke-width: .5px;"/>
    <polygon points="367.71 507.46 367.71 582.66 303.27 545.13 367.71 507.46" style="fill: none; stroke: #1d1d1b; stroke-miterlimit: 10; stroke-width: .5px;"/>
    <path d="M412.33,608.64l-.71.41-43.9,25.34-44.3,25.58c-6.26,3.63-13.27,5.44-20.26,5.44v-120.21l.11-.07,64.44,37.53,44.62,25.99Z" style="fill: none; stroke: #1d1d1b; stroke-miterlimit: 10; stroke-width: .5px;"/>
    <path d="M457.07,382.51v72.71l-89.36,52.24v-23.73c1.05-1.07,2.07-2.16,3.06-3.28,2.13-2.39,4.13-4.9,5.98-7.5,1.35-1.89,2.6-3.84,3.8-5.83.09-.14.17-.27.25-.42,2.38-4.02,4.45-8.29,6.15-12.69,3.54-9.07,5.59-18.86,5.89-29.08.03-.87.04-1.74.04-2.61.01-15.18-3.87-29.44-10.66-41.9-.4-.71-.81-1.44-1.21-2.14-1.24-2.09-2.54-4.14-3.93-6.1-1.92-2.76-4-5.38-6.22-7.89-1.01-1.15-2.06-2.27-3.15-3.36v-30.69l89.36,52.27Z" style="fill: none; stroke: #1d1d1b; stroke-miterlimit: 10; stroke-width: .5px;"/>
    <polygon points="519.11 418.79 519.11 418.96 457.08 455.22 457.08 382.51 519.11 418.79" style="fill: none; stroke: #1d1d1b; stroke-miterlimit: 10; stroke-width: .5px;"/>
    <path d="M160.52,255.31l-11.08,6.4-41.97,24.24c-12.54,7.23-20.26,20.61-20.26,35.08v97.95l62.23-35.93,88.76-51.26v-2.61c-35.2-12.47-63.5-39.52-77.68-73.87ZM149.44,344.85c-2.73,1.39-5.83,2.16-9.09,2.16-11.21,0-20.3-9.08-20.3-20.29s9.09-20.3,20.3-20.3c3.26,0,6.36.77,9.09,2.16,6.64,3.33,11.19,10.2,11.19,18.14s-4.55,14.81-11.19,18.13Z" style="fill: none; stroke: #1d1d1b; stroke-miterlimit: 10; stroke-width: .5px;"/>
    <path d="M457.08,455.22l-89.36,52.24v75.2l44.62,25.99,44.75-25.83,41.77-24.12c12.54-7.24,20.26-20.61,20.26-35.08v-104.65l-62.03,36.26ZM431.19,544.87c-11.21,0-20.29-9.08-20.29-20.29s9.08-20.3,20.29-20.3,20.3,9.08,20.3,20.3-9.09,20.29-20.3,20.29Z" style="fill: none; stroke: #1d1d1b; stroke-miterlimit: 10; stroke-width: .5px;"/>
    <polygon points="303.27 545.13 303.16 545.2 238.2 583.16 238.2 507.23 303.16 545.06 303.27 545.13" style="fill: none; stroke: #1d1d1b; stroke-miterlimit: 10; stroke-width: .5px;"/>
    <path d="M498.85,285.94l-41.77-24.12-27.26-15.73c-6.04,31.17-30.79,55.67-62.1,61.3v22.85l89.36,52.27,62.03,36.28v-97.77c0-14.47-7.72-27.85-20.26-35.08ZM465.61,347.01c-3.05,0-5.94-.67-8.53-1.88-6.95-3.22-11.75-10.25-11.75-18.41s4.81-15.2,11.75-18.42c2.59-1.2,5.48-1.88,8.53-1.88,11.21,0,20.3,9.09,20.3,20.3s-9.09,20.29-20.3,20.29Z" style="fill: none; stroke: #1d1d1b; stroke-miterlimit: 10; stroke-width: .5px;"/>
    <path d="M238.2,254.48v74.7c-35.2-12.47-63.5-39.52-77.68-73.87l39.81-22.99,37.87,22.16Z" style="fill: none; stroke: #1d1d1b; stroke-miterlimit: 10; stroke-width: .5px;"/>
    <polygon points="238.2 210.46 238.2 254.48 200.33 232.32 238.2 210.46" style="fill: none; stroke: #1d1d1b; stroke-miterlimit: 10; stroke-width: .5px;"/>
    <path d="M367.71,330.24v30.69c-4.09-4.19-8.63-7.98-13.51-11.29-6.96-4.74-14.64-8.51-22.84-11.11-3.33-1.08-6.73-1.95-10.23-2.6-3.47-.68-7-1.14-10.6-1.4-2.1-.14-4.22-.23-6.37-.23s-4.15.08-6.2.22c-3.34.23-6.65.64-9.89,1.23-3.49.63-6.95,1.47-10.27,2.51h-.02c-8.41,2.6-16.3,6.4-23.42,11.2-5.95,4.01-11.37,8.73-16.16,14.02v-109l64.96,37.99,1.54.9,43.61,25.52h.01l19.39,11.35Z" style="fill: none; stroke: #1d1d1b; stroke-miterlimit: 10; stroke-width: .5px;"/>
    <path d="M367.71,483.73v23.73l-64.44,37.67-.11-.07-64.96-37.83v-26.05c5.3,5.85,11.38,10.99,18.06,15.24,6.68,4.26,14,7.66,21.76,10.03,3.34,1.02,6.77,1.85,10.26,2.48,2.83.52,5.71.87,8.61,1.11,2.41.2,4.83.29,7.27.29s5.02-.09,7.5-.31c3.13-.26,6.2-.68,9.23-1.26,3.41-.63,6.71-1.47,9.96-2.48,7.6-2.39,14.76-5.75,21.32-9.94,5.66-3.61,10.87-7.84,15.54-12.61Z" style="fill: none; stroke: #1d1d1b; stroke-miterlimit: 10; stroke-width: .5px;"/>
    <path d="M160.63,326.73c0,7.94-4.55,14.81-11.19,18.13-2.73,1.39-5.83,2.16-9.09,2.16-11.21,0-20.3-9.08-20.3-20.29s9.09-20.3,20.3-20.3c3.26,0,6.36.77,9.09,2.16,6.64,3.33,11.19,10.2,11.19,18.14Z" style="fill: none; stroke: #1d1d1b; stroke-miterlimit: 10; stroke-width: .5px;"/>
    <path d="M303.16,179.22v113.25l-64.96-37.99v-44.02l44.7-25.82c4.2-2.42,8.71-4.03,13.35-4.82h.01c2.28-.41,4.58-.6,6.89-.6Z" style="fill: none; stroke: #1d1d1b; stroke-miterlimit: 10; stroke-width: .5px;"/>
    <path d="M410.36,234.84l-2.16-1.23-40.49-23.38-44.3-25.58c-6.26-3.61-13.27-5.42-20.26-5.42v113.25l1.54.9,43.61,25.52h.01l19.39,11.35v-22.85c31.31-5.63,56.06-30.13,62.1-61.3l-19.46-11.25ZM371.49,282.01c-1.19.6-2.47,1.09-3.78,1.44-1.7.48-3.47.71-5.31.71-8.69,0-16.11-5.46-19-13.14-.84-2.23-1.3-4.62-1.3-7.14,0-11.21,9.09-20.3,20.3-20.3,1.84,0,3.61.24,5.31.71,1.32.35,2.59.84,3.78,1.44,2.55,1.27,4.79,3.08,6.57,5.27,2.9,3.5,4.62,7.99,4.62,12.87,0,7.94-4.55,14.81-11.19,18.13Z" style="fill: none; stroke: #1d1d1b; stroke-miterlimit: 10; stroke-width: .5px;"/>
    <path d="M303.16,545.2v120.21c-6.99,0-14-1.81-20.26-5.44l-21.28-12.29-23.42-13.52-43.71-25.24-.18-.1,43.23-25.27.66-.39,64.96-37.96Z" style="fill: none; stroke: #1d1d1b; stroke-miterlimit: 10; stroke-width: .5px;"/>
    <path d="M237.54,583.55l-43.23,25.27-44.87-25.9-41.97-24.24c-4.48-2.59-8.35-5.97-11.46-9.89,14.91-6.89,31.49-10.74,48.99-10.74,1.48,0,2.97.03,4.44.1,35.85,1.33,67.58,18.81,88.1,45.4Z" style="fill: none; stroke: #1d1d1b; stroke-miterlimit: 10; stroke-width: .5px;"/>
    <path d="M485.91,326.73c0,11.21-9.09,20.29-20.3,20.29-3.05,0-5.94-.67-8.53-1.88-6.95-3.22-11.75-10.25-11.75-18.41s4.81-15.2,11.75-18.42c2.59-1.2,5.48-1.88,8.53-1.88,11.21,0,20.3,9.09,20.3,20.3Z" style="fill: none; stroke: #1d1d1b; stroke-miterlimit: 10; stroke-width: .5px;"/>
    <path d="M451.49,524.59c0,11.21-9.09,20.29-20.3,20.29s-20.29-9.08-20.29-20.29,9.08-20.3,20.29-20.3,20.3,9.08,20.3,20.3Z" style="fill: none; stroke: #1d1d1b; stroke-miterlimit: 10; stroke-width: .5px;"/>
    <path d="M382.69,263.88c0,7.94-4.55,14.81-11.19,18.13-1.19.6-2.47,1.09-3.78,1.44-1.7.48-3.47.71-5.31.71-8.69,0-16.11-5.46-19-13.14-.84-2.23-1.3-4.62-1.3-7.14,0-11.21,9.09-20.3,20.3-20.3,1.84,0,3.61.24,5.31.71,1.32.35,2.59.84,3.78,1.44,2.55,1.27,4.79,3.08,6.57,5.27,2.9,3.5,4.62,7.99,4.62,12.87Z" style="fill: none; stroke: #1d1d1b; stroke-miterlimit: 10; stroke-width: .5px;"/>
  </g>
  <path d="M392.88,422.32c0,.87-.01,1.74-.04,2.61-.3,10.22-2.35,20.01-5.89,29.08-1.7,4.4-3.77,8.67-6.15,12.69-.08.15-.16.28-.25.42-1.2,1.99-2.45,3.94-3.8,5.83-1.85,2.6-3.85,5.11-5.98,7.5-.99,1.12-2.01,2.21-3.06,3.28-4.67,4.77-9.88,9-15.54,12.61-6.56,4.19-13.72,7.55-21.32,9.94-3.25,1.01-6.55,1.85-9.96,2.48-3.03.58-6.1,1-9.23,1.26-2.48.22-4.98.31-7.5.31s-4.86-.09-7.27-.29c-2.9-.24-5.78-.59-8.61-1.11-3.49-.63-6.92-1.46-10.26-2.48-7.76-2.37-15.08-5.77-21.76-10.03-6.68-4.25-12.76-9.39-18.06-15.24-.04-.04-.07-.08-.11-.12-2.31-2.55-4.48-5.25-6.49-8.07-10.19-14.33-16.17-31.81-16.17-50.68,0-.28,0-.55.01-.82.09-9.99,1.87-19.61,5.05-28.55,1.46-4.1,3.22-8.05,5.25-11.85.59-1.08,1.18-2.15,1.81-3.2,1.21-2.06,2.52-4.06,3.9-6.02,2.02-2.86,4.22-5.61,6.59-8.22.05-.06.1-.11.16-.17,4.79-5.29,10.21-10.01,16.16-14.02,7.12-4.8,15.01-8.6,23.42-11.2h.02c3.32-1.04,6.78-1.88,10.27-2.51,3.24-.59,6.55-1,9.89-1.23,2.05-.14,4.12-.22,6.2-.22s4.27.09,6.37.23c3.6.26,7.13.72,10.6,1.4,3.5.65,6.9,1.52,10.23,2.6,8.2,2.6,15.88,6.37,22.84,11.11,4.88,3.31,9.42,7.1,13.51,11.29,1.09,1.09,2.14,2.21,3.15,3.36,2.22,2.51,4.3,5.13,6.22,7.89,1.39,1.96,2.69,4.01,3.93,6.1.4.7.81,1.43,1.21,2.14,6.79,12.46,10.67,26.72,10.66,41.9Z" style="fill: none; stroke: #1d1d1b; stroke-miterlimit: 10; stroke-width: .5px;"/>
</svg>