<?xml version="1.0" encoding="utf-8"?>
<!-- Generator: Adobe Illustrator 28.1.0, SVG Export Plug-In . SVG Version: 6.00 Build 0)  -->
<svg version="1.1" baseProfile="basic" id="Layer_1"
	 xmlns="http://www.w3.org/2000/svg" xmlns:xlink="http://www.w3.org/1999/xlink" x="0px" y="0px" viewBox="0 0 800 800"
	 xml:space="preserve">
<style type="text/css">
	.st0{fill:none;stroke:#000000;stroke-width:0.5;stroke-miterlimit:10;}
</style>
<g>
	<path d="M303.8,526.7l-0.4-0.2l-132.1-77V341.5l0.1-0.1L303.8,265v47.6l-0.1,0.1c0,0-0.1,0.1-0.1,0.1v0.1l-0.1,0
		c-3.5,3.9-6.8,8-9.8,12.2c-1.9,2.7-3.8,5.6-5.8,9l-2.7,4.8c-3.1,5.9-5.6,11.6-7.8,17.6c-4.9,13.2-7.5,27.4-7.7,42.3v1.2
		c0,27.2,8.3,53.2,24.1,75.3c3.1,4.4,6.3,8.3,9.7,12l0.3,0.3V526.7z M171.8,449.3l131.5,76.6v-38.2l-0.1-0.1
		c-3.4-3.7-6.6-7.6-9.7-12c-15.8-22.1-24.1-48.3-24.1-75.5v-1.2c0.2-14.9,2.8-29.2,7.7-42.5c2.1-6,4.7-11.7,7.8-17.6l2.7-4.8
		c2-3.4,3.9-6.3,5.8-9c3-4.1,6.2-8.2,9.8-12.2c0-0.1,0.1-0.2,0.2-0.3v-46.6l-131.5,75.9V449.3z"/>
</g>
<g>
	<path d="M302.3,640.1l-0.1-0.2c-31.7-41-79.3-65.6-130.8-67.4c-2.2-0.1-4.4-0.1-6.6-0.1c-25.5,0-49.9,5.4-72.8,16l-0.2,0.1
		l-0.1-0.2c-8.6-10.8-13.2-23.8-13.2-37.7V395.1l0.4,0.2l92.6,53.9l132.1,77v113.2L302.3,640.1z M164.8,572c2.2,0,4.4,0,6.6,0.1
		c51.5,1.8,99.3,26.4,131.1,67.4l0.7-0.4V526.4l-131.9-76.8L79,395.9v154.8c0,13.7,4.5,26.6,12.9,37.2
		C114.8,577.3,139.3,572,164.8,572z"/>
</g>
<g>
	<path d="M496.2,638.9l-0.4-0.2l-96.2-56l0.4-0.2l96.2-56.3V638.9z M400.7,582.7l95.1,55.4V527L400.7,582.7z"/>
</g>
<g>
	<path d="M400,761.8h-0.2V582.6l0.5-0.2l0.1,0.1l95.8,55.8l66.8,38.8l-1.5,0.8l-65.3,37.7l-65.9,38
		C421.1,758.9,410.6,761.8,400,761.8z M400.2,583v178.2c10.4,0,20.7-2.8,29.7-8.1l65.9-38l65.3-37.7l0.7-0.4l-66-38.4L400.2,583z"/>
</g>
<g>
	<path d="M495.8,527v-35.8l0.1-0.1c1.6-1.6,3.1-3.2,4.6-4.9c3-3.4,5.9-7,8.9-11.2c2-2.8,3.9-5.7,5.7-8.7c0-0.1,0.1-0.2,0.2-0.3
		c0.1-0.1,0.1-0.2,0.2-0.3c3.7-6.3,6.7-12.6,9.1-18.9c5.3-13.6,8.3-28.1,8.8-43.2c0-0.6,0-1.3,0-2c0-0.6,0-1.3,0-1.9
		c0-21.7-5.5-43.2-15.9-62.2c-0.3-0.5-0.6-1.1-0.9-1.6c-0.3-0.5-0.6-1.1-0.9-1.6c-1.7-2.9-3.6-5.9-5.8-9.1
		c-3.3-4.7-6.2-8.4-9.3-11.7c-1.5-1.7-3.1-3.4-4.7-5l-0.1-0.1v-46.1l0.4,0.2l132.9,78V449l-0.1,0.1L495.8,527z M496.2,491.4v34.8
		l132.4-77.4V340.9l-132.3-77.6v45.1c1.6,1.6,3.2,3.3,4.6,4.9c3,3.3,6,7,9.3,11.7c2.2,3.1,4.1,6.2,5.8,9.1c0.3,0.6,0.6,1.1,0.9,1.6
		c0.3,0.5,0.6,1,0.9,1.6c10.4,19.1,15.9,40.7,15.9,62.4c0,0.7,0,1.3,0,2c0,0.6,0,1.3,0,1.9c-0.5,15.2-3.5,29.8-8.8,43.4
		c-2.4,6.3-5.4,12.6-9.1,18.9c0,0.1-0.1,0.2-0.2,0.3c-0.1,0.1-0.1,0.2-0.2,0.3c-1.8,3-3.7,5.9-5.7,8.7c-3,4.2-5.9,7.8-8.9,11.2
		C499.3,488.3,497.8,489.8,496.2,491.4z"/>
</g>
<g>
	<path d="M628.7,449.3v-109l0.4,0.2l92.4,54.1v0.5l-0.1,0.1L628.7,449.3z M629.2,341.2v107.2l91.7-53.6L629.2,341.2z"/>
</g>
<path d="M78.5,395.4V249.3c0-21.5,11.6-41.6,30.2-52.4l62.4-36l16.7-9.6l0.1,0.3c21.1,51.2,63.2,91.2,115.5,109.8l0.2,0.1v4.2
	l-0.1,0.1l-132,76.2L78.5,395.4z M187.7,152l-16.3,9.4l-62.4,36c-18.5,10.7-30,30.7-30,52v145.3l92.2-53.2l131.9-76.1v-3.6
	C251,243.1,208.9,203.1,187.7,152z M157.9,288.2c-16.8,0-30.4-13.7-30.4-30.5s13.7-30.4,30.4-30.4c5,0,9.5,1.1,13.6,3.2
	c10.3,5.2,16.7,15.6,16.7,27.2c0,11.5-6.4,22-16.7,27.2l0,0C167.3,287.2,162.8,288.2,157.9,288.2z M157.9,227.9
	c-16.5,0-29.9,13.4-29.9,29.9c0,16.5,13.4,30,29.9,30c4.8,0,9.3-1.1,13.4-3.2l0,0c10.2-5.2,16.5-15.4,16.5-26.8
	c0-11.4-6.3-21.6-16.5-26.8C167.3,228.9,162.8,227.9,157.9,227.9z"/>
<g>
	<path d="M562.4,677.4l-0.1-0.1l-66.5-38.8V526.5l0.1-0.1l132.9-77.7l92.7-54.1v156c0,21.5-11.6,41.6-30.2,52.4l-62.1,35.9
		L562.4,677.4z M496.2,638.3l66.2,38.6l66.5-38.3l62.1-35.9c18.5-10.7,30-30.7,30-52V395.4L629,449.1l-132.8,77.6V638.3z
		 M590.4,582.5c-16.8,0-30.5-13.7-30.5-30.5s13.7-30.4,30.5-30.4s30.4,13.7,30.4,30.4S607.2,582.5,590.4,582.5z M590.4,522.2
		c-16.5,0-30,13.4-30,29.9c0,16.5,13.4,30,30,30c16.5,0,29.9-13.4,29.9-30C620.3,535.6,606.9,522.2,590.4,522.2z"/>
</g>
<g>
	<path d="M303.1,639.6V525.9l0.4,0.2l96.6,56.3l0.6,0.3l-0.6,0.3L303.1,639.6z M303.6,526.7v112l96-56.1L303.6,526.7z"/>
</g>
<g>
	<path d="M721.5,395.2l-0.4-0.2l-92.3-54l-133-77.8v-34.4l0.2,0c22.8-4.1,43.6-14.9,60.2-31.3c16.5-16.3,27.6-37,32-59.7l0.1-0.3
		l0.3,0.2L691.2,197c18.6,10.7,30.2,30.7,30.3,52.3V395.2z M496.3,263l132.8,77.6l91.9,53.8V249.3c-0.1-21.4-11.6-41.3-30.1-51.9v0
		l-102.3-59.1c-4.5,22.7-15.6,43.3-32.1,59.6c-16.6,16.4-37.4,27.2-60.2,31.4V263z M641.6,288.2c-4.4,0-8.7-0.9-12.8-2.8
		c-10.7-5-17.6-15.8-17.6-27.6c0-11.8,6.9-22.7,17.6-27.6c4.1-1.9,8.3-2.8,12.8-2.8c16.8,0,30.5,13.7,30.5,30.4
		C672,274.6,658.4,288.2,641.6,288.2z M641.6,227.9c-4.4,0-8.5,0.9-12.6,2.8c-10.5,4.9-17.4,15.5-17.4,27.2
		c0,11.6,6.8,22.3,17.4,27.2c4,1.8,8.2,2.8,12.6,2.8c16.5,0,30-13.4,30-30C671.5,241.3,658.1,227.9,641.6,227.9z"/>
</g>
<g>
	<path d="M303.6,261.9l-0.3-0.1c-52.4-18.5-94.5-58.6-115.6-110l-0.1-0.2l59.5-34.4l0.1,0.1l56.4,33.1V261.9z M188.2,151.7
		c21.1,51.1,62.9,91,114.9,109.4V150.5l-56.1-32.9L188.2,151.7z"/>
</g>
<g>
	<path d="M303.6,150.8l-57-33.4l57-32.9V150.8z M247.6,117.4l55.6,32.6V85.3L247.6,117.4z"/>
</g>
<g>
	<path d="M303.1,313.2V150l0.4,0.2l96.6,56.5l2.3,1.3l64.9,38l28.9,17v46.4l-0.4-0.4c-6.3-6.5-13.1-12.1-20.1-16.8
		c-10.8-7.3-22.2-12.8-33.9-16.5c-5.1-1.6-10.1-2.9-15.2-3.9c-5.3-1-10.4-1.7-15.8-2.1c-6.1-0.4-12.6-0.4-18.7,0
		c-5.4,0.3-10.7,1.1-14.7,1.8c-4.7,0.8-9.7,2-15.3,3.7c-12.5,3.9-24.2,9.5-34.7,16.7c-8.9,6.1-17,13.1-24,20.9L303.1,313.2z
		 M303.6,150.8v161c6.9-7.6,14.8-14.5,23.6-20.5c10.6-7.2,22.3-12.8,34.9-16.7c5.6-1.7,10.6-2.9,15.3-3.7c4-0.7,9.3-1.5,14.7-1.8
		c6.1-0.4,12.6-0.4,18.7,0c5.4,0.4,10.5,1.1,15.8,2.1c5.1,1,10.1,2.3,15.2,3.9c11.7,3.7,23.2,9.2,34.1,16.5
		c6.8,4.6,13.5,10.1,19.7,16.4v-44.8l-28.7-16.8l-64.9-38l-2.3-1.3L303.6,150.8z"/>
</g>
<g>
	<path d="M400.2,582.9l-0.3-0.2l-96.7-56.4v-39.5l0.4,0.5c7.9,8.7,16.9,16.3,26.8,22.7c10.1,6.5,21,11.5,32.3,14.9
		c5.6,1.7,10.6,2.9,15.3,3.7c3.6,0.7,7.5,1.2,12.8,1.7c3.2,0.3,6.8,0.4,10.8,0.4c4.5,0,8-0.2,11.2-0.5c4.9-0.4,9.4-1,13.7-1.9
		c4.6-0.8,9.4-2,14.8-3.7c11.3-3.6,21.9-8.6,31.6-14.8c8.4-5.4,16.1-11.7,23-18.7l0.4-0.4v36.1l-0.1,0.1L400.2,582.9z M303.6,526.1
		l96.5,56.3l95.6-55.9v-34.5c-6.7,6.9-14.3,13-22.6,18.3c-9.7,6.2-20.4,11.2-31.8,14.8c-5.4,1.7-10.2,2.9-14.8,3.7
		c-4.3,0.9-8.8,1.5-13.7,1.9c-3.2,0.3-6.7,0.5-11.2,0.5c-4,0-7.6-0.1-10.8-0.4c-5.2-0.5-9.2-1-12.8-1.7c-4.7-0.8-9.7-2-15.3-3.7
		c-11.4-3.4-22.3-8.5-32.5-14.9c-9.8-6.3-18.7-13.8-26.5-22.3V526.1z"/>
</g>
<path d="M157.9,288.2c-16.8,0-30.4-13.7-30.4-30.5c0-16.8,13.7-30.4,30.4-30.4c5,0,9.5,1.1,13.6,3.2c10.3,5.3,16.7,15.7,16.7,27.2
	s-6.4,22-16.7,27.2C167.3,287.2,162.8,288.2,157.9,288.2z M157.9,227.9c-16.5,0-29.9,13.4-29.9,29.9c0,16.5,13.4,30,29.9,30
	c4.8,0,9.3-1.1,13.4-3.2c10.2-5.2,16.5-15.4,16.5-26.8s-6.3-21.6-16.5-26.8C167.3,228.9,162.8,227.9,157.9,227.9z"/>
<g>
	<path d="M400.2,207.2l-0.4-0.2l-96.7-56.6V84.8l0.1-0.1l66.5-38.4c6.3-3.6,13-6,20-7.2c3.3-0.6,6.8-0.9,10.2-0.9h0.2V207.2z
		 M303.6,150.2l96.1,56.2V38.7c-3.3,0-6.8,0.3-9.9,0.9c-6.9,1.2-13.6,3.6-19.8,7.2L303.6,85V150.2z"/>
</g>
<g>
	<path d="M496.2,263.4l-0.4-0.2l-28.8-16.9l-64.9-38l-2.4-1.4V38.1h0.2c10.6,0,21.1,2.8,30.2,8.1l65.9,38l60.2,34.9l3.2,1.8
		l29.2,16.7l0,0.2c-4.4,22.8-15.6,43.6-32.2,60c-16.6,16.4-37.4,27.2-60.2,31.4V263.4z M400.2,206.7l2.2,1.2l64.9,38l28.4,16.7
		v-33.8l0.2,0c22.8-4.1,43.6-14.9,60.2-31.3c16.5-16.3,27.6-36.9,32-59.5l-32-18.3l-60.2-34.9l-65.9-38c-9-5.2-19.3-8-29.7-8.1
		V206.7z M488.1,194.8c-12.6,0-24.1-7.9-28.5-19.7c-1.3-3.2-1.9-6.8-1.9-10.7c0-16.8,13.7-30.4,30.4-30.4c2.6,0,5.4,0.4,8,1.1
		c2.2,0.5,4.2,1.4,5.6,2.1c3.7,1.9,7.1,4.5,9.9,7.9c4.5,5.4,7,12.3,7,19.3c0,11.7-6.5,22.1-16.8,27.2l0,0c-1.8,0.9-3.7,1.6-5.6,2.1
		C493.5,194.4,490.7,194.8,488.1,194.8z M488.1,134.5c-16.5,0-29.9,13.4-29.9,29.9c0,3.8,0.6,7.3,1.9,10.5
		c4.4,11.6,15.6,19.3,28.1,19.3c2.6,0,5.3-0.4,7.8-1.1c1.9-0.5,3.8-1.2,5.6-2.1l0,0c10.2-5.1,16.6-15.3,16.6-26.8
		c0-6.9-2.4-13.6-6.8-18.9c-2.8-3.3-6.1-5.9-9.7-7.7c-1.5-0.7-3.4-1.5-5.5-2.1C493.4,134.8,490.7,134.5,488.1,134.5z"/>
</g>
<g>
	<path d="M400.2,761.8H400c-10.6,0-21.1-2.8-30.2-8.1l-131.5-75.9l-0.8-0.3l0.5-0.3l64.3-37.6l1-0.6l97-56.7V761.8z M238.7,677.5
		l64.9,37.4l66.5,38.4c9,5.2,19.3,8,29.7,8.1V583.2l-96.2,56.3l-1,0.6L238.7,677.5z"/>
</g>
<g>
	<path d="M238.1,677.7l-0.1-0.1l-66.7-38.5l-62.4-36c-6.6-3.8-12.4-8.8-17.1-14.8l-0.2-0.2l0.3-0.1c22.9-10.6,47.5-16,73-16
		c2.2,0,4.4,0,6.6,0.1c51.6,1.9,99.4,26.6,131.1,67.6l0.2,0.2L238.1,677.7z M92.4,588.3c4.6,5.8,10.3,10.6,16.7,14.4l62.4,36
		l66.6,38.4l63.9-37.4c-31.6-40.8-79.1-65.2-130.5-67.2c-2.2-0.1-4.4-0.1-6.6-0.1C139.6,572.5,115.2,577.8,92.4,588.3z"/>
</g>
<path d="M641.6,288.2c-4.4,0-8.7-0.9-12.8-2.8c-10.7-5-17.6-15.8-17.6-27.6c0-11.8,6.9-22.7,17.6-27.6c4.1-1.9,8.3-2.8,12.8-2.8
	c16.8,0,30.5,13.7,30.5,30.4C672,274.6,658.4,288.2,641.6,288.2z M641.6,227.9c-4.4,0-8.5,0.9-12.6,2.8
	c-10.5,4.9-17.4,15.5-17.4,27.2c0,11.6,6.8,22.3,17.4,27.2c4,1.8,8.2,2.8,12.6,2.8c16.5,0,30-13.4,30-30
	C671.5,241.3,658.1,227.9,641.6,227.9z"/>
<path d="M590.4,582.5c-16.8,0-30.5-13.7-30.5-30.5s13.7-30.4,30.5-30.4s30.4,13.7,30.4,30.4S607.2,582.5,590.4,582.5z M590.4,522.2
	c-16.5,0-30,13.4-30,29.9c0,16.5,13.4,30,30,30c16.5,0,29.9-13.4,29.9-30C620.3,535.6,606.9,522.2,590.4,522.2z"/>
<path d="M488.2,194.9c-12.6,0-24.1-7.9-28.5-19.7c-1.3-3.2-1.9-6.8-1.9-10.7c0-16.8,13.7-30.5,30.5-30.5c2.6,0,5.4,0.4,8,1.1
	c2.2,0.5,4.2,1.4,5.6,2.1c3.7,1.9,7.1,4.5,9.9,7.9c4.4,5.4,6.9,12.2,6.9,19.3c0,11.5-6.4,22-16.7,27.2c-1.8,0.9-3.7,1.6-5.7,2.1
	C493.6,194.5,490.8,194.9,488.2,194.9z M488.2,134.5c-16.5,0-30,13.4-30,30c0,3.8,0.6,7.3,1.9,10.5c4.4,11.6,15.6,19.3,28.1,19.3
	c2.6,0,5.3-0.4,7.8-1.1c1.9-0.5,3.8-1.2,5.6-2.1c10.2-5.2,16.5-15.4,16.5-26.8c0-6.9-2.4-13.7-6.7-18.9c-2.8-3.3-6.1-5.9-9.7-7.7
	c-1.5-0.7-3.4-1.5-5.5-2.1C493.5,134.9,490.8,134.5,488.2,134.5z"/>
<path class="st0" d="M533.5,400c0,1.3,0,2.6-0.1,3.9c-0.4,15.2-3.5,29.8-8.8,43.3c-2.5,6.5-5.6,12.9-9.1,18.9
	c-0.1,0.2-0.2,0.4-0.4,0.6c-1.8,3-3.6,5.9-5.7,8.7c-2.8,3.9-5.7,7.6-8.9,11.2c-1.5,1.7-3,3.3-4.6,4.9c-6.9,7.1-14.7,13.4-23.1,18.8
	c-9.8,6.2-20.4,11.2-31.7,14.8c-4.8,1.5-9.7,2.8-14.8,3.7c-4.5,0.9-9.1,1.5-13.7,1.9c-3.7,0.3-7.4,0.5-11.2,0.5
	c-3.6,0-7.2-0.1-10.8-0.4c-4.3-0.4-8.6-0.9-12.8-1.7c-5.2-0.9-10.3-2.2-15.3-3.7c-11.5-3.5-22.4-8.6-32.4-14.9
	c-9.9-6.3-19-14-26.9-22.7c-0.1-0.1-0.1-0.1-0.2-0.2c-3.4-3.8-6.7-7.8-9.7-12c-15.2-21.3-24.1-47.3-24.1-75.4c0-0.4,0-0.8,0-1.2
	c0.1-14.9,2.8-29.2,7.5-42.5c2.2-6.1,4.8-12,7.8-17.6c0.9-1.6,1.8-3.2,2.7-4.8c1.8-3.1,3.7-6,5.8-9c3-4.3,6.3-8.3,9.8-12.2
	c0.1-0.1,0.1-0.2,0.2-0.3c7.1-7.9,15.2-14.9,24-20.9c10.6-7.1,22.3-12.8,34.8-16.7l0,0c4.9-1.5,10.1-2.8,15.3-3.7
	c4.8-0.9,9.7-1.5,14.7-1.8c3-0.2,6.1-0.3,9.2-0.3c3.2,0,6.4,0.1,9.5,0.3c5.4,0.4,10.6,1.1,15.8,2.1c5.2,1,10.3,2.3,15.2,3.9
	c12.2,3.9,23.6,9.5,34,16.5c7.3,4.9,14,10.6,20.1,16.8c1.6,1.6,3.2,3.3,4.7,5c3.3,3.7,6.4,7.6,9.3,11.7c2.1,2.9,4,6,5.8,9.1
	c0.6,1,1.2,2.1,1.8,3.2C527.7,356.2,533.5,377.4,533.5,400z"/>
</svg>
