<?xml version="1.0" encoding="utf-8"?>
<!-- Generator: Adobe Illustrator 28.1.0, SVG Export Plug-In . SVG Version: 6.00 Build 0)  -->
<svg version="1.1" id="Layer_1" xmlns="http://www.w3.org/2000/svg" xmlns:xlink="http://www.w3.org/1999/xlink" x="0px" y="0px"
	 viewBox="0 0 800 800" style="enable-background:new 0 0 800 800;" xml:space="preserve">
<style type="text/css">
	.st0{fill:none;stroke:#000000;stroke-width:0.5;stroke-miterlimit:10;}
</style>
<g>
	<path class="st0" d="M269.5,398.8c0,0.4,0,0.8,0,1.2c0,28.1,8.9,54.1,24.1,75.4c3,4.2,6.2,8.2,9.7,12c0.1,0.1,0.1,0.1,0.2,0.2v38.7
		l-132-76.9V341.6l132-76.2v47.1c-0.1,0.1-0.2,0.2-0.2,0.3c-3.5,3.9-6.8,8-9.8,12.2c-2.1,2.9-4,5.9-5.8,9c-0.9,1.6-1.8,3.2-2.7,4.8
		c-3,5.7-5.6,11.5-7.8,17.6C272.3,369.6,269.7,383.9,269.5,398.8z"/>
	<path class="st0" d="M303.4,526.3v112.9l-1,0.6c-30.5-39.5-77.7-65.6-131-67.5c-2.2-0.1-4.4-0.1-6.6-0.1c-26,0-50.7,5.7-72.9,16
		c-8.4-10.5-13.1-23.6-13.1-37.5V395.5l92.6,53.9L303.4,526.3z"/>
	<polygon class="st0" points="496,526.6 496,638.5 400.2,582.7 	"/>
	<path class="st0" d="M562.4,677.1l-1.1,0.6L496,715.4l-65.9,38c-9.3,5.4-19.7,8.1-30.1,8.1V582.8l0.2-0.1l95.8,55.8L562.4,677.1z"
		/>
	<path class="st0" d="M628.9,340.8v108.1L496,526.6v-35.3c1.6-1.6,3.1-3.2,4.6-4.9c3.2-3.6,6.1-7.3,8.9-11.2c2-2.8,3.9-5.7,5.7-8.7
		c0.1-0.2,0.3-0.4,0.4-0.6c3.5-6,6.6-12.3,9.1-18.9c5.3-13.5,8.3-28.1,8.8-43.3c0-1.3,0.1-2.6,0.1-3.9c0-22.6-5.8-43.8-15.9-62.3
		c-0.6-1.1-1.2-2.1-1.8-3.2c-1.8-3.1-3.8-6.2-5.8-9.1c-2.9-4.1-5.9-8-9.3-11.7c-1.5-1.7-3.1-3.4-4.7-5v-45.6L628.9,340.8z"/>
	<polygon class="st0" points="721.2,394.8 721.2,395 628.9,448.9 628.9,340.8 	"/>
	<path class="st0" d="M187.8,151.6l-16.5,9.5l-62.4,36c-18.6,10.8-30.1,30.7-30.1,52.2V395l92.6-53.4l132-76.2v-3.9
		C251,242.9,208.9,202.7,187.8,151.6z M171.4,284.8c-4.1,2.1-8.7,3.2-13.5,3.2c-16.7,0-30.2-13.5-30.2-30.2s13.5-30.2,30.2-30.2
		c4.9,0,9.5,1.1,13.5,3.2c9.9,5,16.6,15.2,16.6,27C188,269.6,181.2,279.8,171.4,284.8z"/>
	<path class="st0" d="M628.9,448.9L496,526.6v111.8l66.4,38.7l66.6-38.4l62.1-35.9c18.6-10.8,30.1-30.7,30.1-52.2V395L628.9,448.9z
		 M590.4,582.3c-16.7,0-30.2-13.5-30.2-30.2c0-16.7,13.5-30.2,30.2-30.2s30.2,13.5,30.2,30.2C620.6,568.8,607.1,582.3,590.4,582.3z"
		/>
	<polygon class="st0" points="400.2,582.7 400,582.8 303.4,639.2 303.4,526.3 400,582.6 	"/>
	<path class="st0" d="M691.1,197.2l-62.1-35.9l-40.5-23.4c-9,46.4-45.8,82.8-92.4,91.2v34l132.9,77.7l92.3,54V249.3
		C721.2,227.8,709.7,207.9,691.1,197.2z M641.6,288c-4.5,0-8.8-1-12.7-2.8c-10.3-4.8-17.5-15.3-17.5-27.4c0-12.1,7.1-22.6,17.5-27.4
		c3.9-1.8,8.1-2.8,12.7-2.8c16.7,0,30.2,13.5,30.2,30.2S658.3,288,641.6,288z"/>
	<path class="st0" d="M303.4,150.4v111.1c-52.4-18.5-94.5-58.8-115.5-109.9l59.2-34.2L303.4,150.4z"/>
	<polygon class="st0" points="303.4,84.9 303.4,150.4 247.1,117.4 	"/>
	<path class="st0" d="M496,263.1v45.6c-6.1-6.2-12.8-11.9-20.1-16.8c-10.4-7-21.8-12.7-34-16.5c-5-1.6-10-2.9-15.2-3.9
		c-5.2-1-10.4-1.7-15.8-2.1c-3.1-0.2-6.3-0.3-9.5-0.3c-3.1,0-6.2,0.1-9.2,0.3c-5,0.3-9.9,1-14.7,1.8c-5.2,0.9-10.3,2.2-15.3,3.7
		c0,0,0,0,0,0c-12.5,3.9-24.2,9.5-34.8,16.7c-8.8,6-16.9,13-24,20.9V150.4l96.6,56.5l2.3,1.3l64.9,38h0L496,263.1z"/>
	<path class="st0" d="M496,491.3v35.3l-95.8,56l-0.2-0.1l-96.6-56.3v-38.7c7.9,8.7,16.9,16.3,26.9,22.7c9.9,6.3,20.8,11.4,32.4,14.9
		c5,1.5,10.1,2.8,15.3,3.7c4.2,0.8,8.5,1.3,12.8,1.7c3.6,0.3,7.2,0.4,10.8,0.4c3.7,0,7.5-0.1,11.2-0.5c4.7-0.4,9.2-1,13.7-1.9
		c5.1-0.9,10-2.2,14.8-3.7c11.3-3.6,22-8.6,31.7-14.8C481.3,504.7,489.1,498.4,496,491.3z"/>
	<path class="st0" d="M188,257.8c0,11.8-6.8,22-16.6,27c-4.1,2.1-8.7,3.2-13.5,3.2c-16.7,0-30.2-13.5-30.2-30.2s13.5-30.2,30.2-30.2
		c4.9,0,9.5,1.1,13.5,3.2C181.2,235.8,188,246,188,257.8z"/>
	<path class="st0" d="M400,38.4v168.4l-96.6-56.5V84.9l66.5-38.4c6.3-3.6,13-6,19.9-7.2h0C393.1,38.7,396.6,38.4,400,38.4z"/>
	<path class="st0" d="M559.4,121.2l-3.2-1.8L496,84.5l-65.9-38c-9.3-5.4-19.7-8.1-30.1-8.1v168.4l2.3,1.3l64.9,38h0l28.8,16.9v-34
		c46.6-8.4,83.4-44.8,92.4-91.2L559.4,121.2z M501.6,191.3c-1.8,0.9-3.7,1.6-5.6,2.1c-2.5,0.7-5.2,1.1-7.9,1.1
		c-12.9,0-24-8.1-28.3-19.5c-1.3-3.3-1.9-6.9-1.9-10.6c0-16.7,13.5-30.2,30.2-30.2c2.7,0,5.4,0.4,7.9,1.1c2,0.5,3.9,1.3,5.6,2.1
		c3.8,1.9,7.1,4.6,9.8,7.8c4.3,5.2,6.9,11.9,6.9,19.1C518.3,176.2,511.5,186.4,501.6,191.3z"/>
	<path class="st0" d="M400,582.8v178.8c-10.4,0-20.8-2.7-30.1-8.1l-31.7-18.3l-34.8-20.1l-65-37.5l-0.3-0.1l64.3-37.6l1-0.6
		L400,582.8z"/>
	<path class="st0" d="M302.4,639.8l-64.3,37.6l-66.7-38.5l-62.4-36c-6.7-3.9-12.4-8.9-17-14.7c22.2-10.3,46.8-16,72.9-16
		c2.2,0,4.4,0,6.6,0.1C224.7,574.3,271.9,600.3,302.4,639.8z"/>
	<path class="st0" d="M671.8,257.8c0,16.7-13.5,30.2-30.2,30.2c-4.5,0-8.8-1-12.7-2.8c-10.3-4.8-17.5-15.3-17.5-27.4
		c0-12.1,7.1-22.6,17.5-27.4c3.9-1.8,8.1-2.8,12.7-2.8C658.3,227.6,671.8,241.2,671.8,257.8z"/>
	<path class="st0" d="M620.6,552.1c0,16.7-13.5,30.2-30.2,30.2s-30.2-13.5-30.2-30.2c0-16.7,13.5-30.2,30.2-30.2
		S620.6,535.4,620.6,552.1z"/>
	<path class="st0" d="M518.3,164.4c0,11.8-6.8,22-16.6,27c-1.8,0.9-3.7,1.6-5.6,2.1c-2.5,0.7-5.2,1.1-7.9,1.1
		c-12.9,0-24-8.1-28.3-19.5c-1.3-3.3-1.9-6.9-1.9-10.6c0-16.7,13.5-30.2,30.2-30.2c2.7,0,5.4,0.4,7.9,1.1c2,0.5,3.9,1.3,5.6,2.1
		c3.8,1.9,7.1,4.6,9.8,7.8C515.7,150.4,518.3,157.1,518.3,164.4z"/>
</g>
<path class="st0" d="M533.5,400c0,1.3,0,2.6-0.1,3.9c-0.4,15.2-3.5,29.8-8.8,43.3c-2.5,6.5-5.6,12.9-9.1,18.9
	c-0.1,0.2-0.2,0.4-0.4,0.6c-1.8,3-3.6,5.9-5.7,8.7c-2.8,3.9-5.7,7.6-8.9,11.2c-1.5,1.7-3,3.3-4.6,4.9c-6.9,7.1-14.7,13.4-23.1,18.8
	c-9.8,6.2-20.4,11.2-31.7,14.8c-4.8,1.5-9.7,2.8-14.8,3.7c-4.5,0.9-9.1,1.5-13.7,1.9c-3.7,0.3-7.4,0.5-11.2,0.5
	c-3.6,0-7.2-0.1-10.8-0.4c-4.3-0.4-8.6-0.9-12.8-1.7c-5.2-0.9-10.3-2.2-15.3-3.7c-11.5-3.5-22.4-8.6-32.4-14.9
	c-9.9-6.3-19-14-26.9-22.7c-0.1-0.1-0.1-0.1-0.2-0.2c-3.4-3.8-6.7-7.8-9.7-12c-15.2-21.3-24.1-47.3-24.1-75.4c0-0.4,0-0.8,0-1.2
	c0.1-14.9,2.8-29.2,7.5-42.5c2.2-6.1,4.8-12,7.8-17.6c0.9-1.6,1.8-3.2,2.7-4.8c1.8-3.1,3.7-6,5.8-9c3-4.3,6.3-8.3,9.8-12.2
	c0.1-0.1,0.1-0.2,0.2-0.3c7.1-7.9,15.2-14.9,24-20.9c10.6-7.1,22.3-12.8,34.8-16.7c0,0,0,0,0,0c4.9-1.5,10.1-2.8,15.3-3.7
	c4.8-0.9,9.7-1.5,14.7-1.8c3-0.2,6.1-0.3,9.2-0.3c3.2,0,6.4,0.1,9.5,0.3c5.4,0.4,10.6,1.1,15.8,2.1c5.2,1,10.3,2.3,15.2,3.9
	c12.2,3.9,23.6,9.5,34,16.5c7.3,4.9,14,10.6,20.1,16.8c1.6,1.6,3.2,3.3,4.7,5c3.3,3.7,6.4,7.6,9.3,11.7c2.1,2.9,4,6,5.8,9.1
	c0.6,1,1.2,2.1,1.8,3.2C527.7,356.2,533.5,377.4,533.5,400z"/>
</svg>
